<svg width="56" height="38" viewBox="0 0 56 38" fill="none" xmlns="http://www.w3.org/2000/svg">
<path d="M28.034 37.9827C22.25 37.9827 16.4787 35.8872 10.72 31.6962C9.70919 30.8945 8.92571 29.8429 8.4472 28.6456C7.96869 27.4483 7.81176 26.1469 7.99199 24.8703L9.57499 11.6102C9.61783 10.7181 9.98355 9.87184 10.6041 9.22884C11.2247 8.58583 12.058 8.18979 12.949 8.11433H14.506C15.4599 8.10018 16.4015 7.89779 17.2768 7.51879C18.152 7.13979 18.9436 6.59167 19.606 5.90596L23.667 1.85579C24.2371 1.27638 24.9171 0.816188 25.6672 0.50205C26.4174 0.187912 27.2226 0.026123 28.036 0.026123C28.8494 0.026123 29.6546 0.187912 30.4047 0.50205C31.1549 0.816188 31.8348 1.27638 32.405 1.85579L36.463 5.90596C37.1254 6.59167 37.917 7.13979 38.7922 7.51879C39.6675 7.89779 40.6091 8.10018 41.563 8.11433H43.115C44.006 8.19015 44.8393 8.58625 45.4601 9.22913C46.081 9.87201 46.4473 10.718 46.491 11.6102L48.075 24.8703C48.2543 26.1461 48.0969 27.4465 47.6185 28.6429C47.14 29.8392 46.357 30.89 45.347 31.6912C39.601 35.8802 33.815 37.9777 28.031 37.9777L28.034 37.9827ZM12.953 10.8281C12.6562 10.8534 12.3786 10.9856 12.1721 11.2C11.9655 11.4144 11.8439 11.6965 11.83 11.9937L10.243 25.2579C10.1375 26.0294 10.2353 26.815 10.5268 27.5372C10.8183 28.2594 11.2933 28.8932 11.905 29.376C22.757 37.2945 33.311 37.2975 44.164 29.376C44.7767 28.8941 45.2524 28.2604 45.544 27.538C45.8356 26.8155 45.9328 26.0295 45.826 25.2579L44.238 11.9927C44.224 11.6955 44.1025 11.4134 43.8959 11.199C43.6893 10.9846 43.4118 10.8524 43.115 10.8271H41.562C40.3358 10.8094 39.1252 10.5497 37.9998 10.0629C36.8745 9.57606 35.8567 8.87174 35.005 7.99047L30.944 3.93831C30.5642 3.5519 30.1111 3.24497 29.6112 3.03545C29.1113 2.82592 28.5746 2.71801 28.0325 2.71801C27.4904 2.71801 26.9537 2.82592 26.4538 3.03545C25.9539 3.24497 25.5008 3.5519 25.121 3.93831L21.063 7.99047C20.2114 8.87211 19.1937 9.57679 18.0684 10.064C16.943 10.5511 15.7323 10.8112 14.506 10.8291L12.953 10.8281Z" fill="#071C1F"/>
<path d="M9.07199 29.7085C8.9168 29.7079 8.76395 29.6706 8.62599 29.5997L5.21599 27.8607C3.80857 27.0405 2.65006 25.8546 1.86367 24.4291C1.07727 23.0036 0.692399 21.3919 0.749987 19.7654C0.749987 19.4258 0.774987 19.0562 0.799987 18.7166C0.895673 17.4183 1.27381 16.1564 1.90801 15.0191C2.54222 13.8817 3.41722 12.8963 4.47199 12.1315C5.41603 11.4571 6.52984 11.0594 7.68796 10.9832C8.84607 10.907 10.0025 11.1552 11.027 11.7C11.3184 11.8827 11.5368 12.1614 11.6443 12.4878C11.7519 12.8143 11.7418 13.168 11.616 13.4879C11.5767 13.641 11.5039 13.7836 11.4028 13.9053C11.3017 14.0269 11.1749 14.1247 11.0314 14.1916C10.888 14.2584 10.7315 14.2927 10.5732 14.2919C10.4149 14.2911 10.2588 14.2553 10.116 14.187C9.40905 13.8115 8.61119 13.6406 7.81226 13.6935C7.01332 13.7465 6.24506 14.0212 5.59399 14.4867C4.8683 15.0113 4.26565 15.6874 3.82789 16.4681C3.39013 17.2487 3.12776 18.1152 3.05899 19.0073C3.04099 19.219 3.01999 19.5067 3.01999 19.7594C2.98012 20.8843 3.2462 21.999 3.78994 22.9849C4.33367 23.9709 5.13475 24.7912 6.10799 25.3587L9.51699 27.0976C9.80973 27.2778 10.0301 27.5547 10.1397 27.8802C10.2493 28.2057 10.2412 28.5593 10.117 28.8795C10.05 29.1086 9.91337 29.3112 9.72594 29.4592C9.53851 29.6072 9.30961 29.6933 9.07099 29.7055L9.07199 29.7085Z" fill="#071C1F"/>
<path d="M46.996 29.7084C46.7574 29.6962 46.5285 29.6101 46.341 29.4621C46.1536 29.3141 46.0169 29.1115 45.95 28.8824C45.8257 28.5622 45.8177 28.2086 45.9273 27.8831C46.0369 27.5575 46.2572 27.2807 46.55 27.1005L49.96 25.3616C50.9315 24.7941 51.7311 23.9745 52.2739 22.9897C52.8167 22.0049 53.0825 20.8917 53.043 19.7683C53.043 19.5106 53.023 19.2279 53.002 18.9692C52.9291 18.085 52.665 17.227 52.2281 16.4545C51.7911 15.682 51.1916 15.0133 50.471 14.4946C49.8205 14.0278 49.0521 13.7523 48.2529 13.6993C47.4536 13.6463 46.6555 13.818 45.949 14.1949C45.8062 14.263 45.6501 14.2987 45.4918 14.2994C45.3336 14.3001 45.1772 14.2658 45.0338 14.1989C44.8904 14.1321 44.7636 14.0344 44.6625 13.9128C44.5614 13.7912 44.4885 13.6488 44.449 13.4958C44.3225 13.176 44.3122 12.822 44.4198 12.4954C44.5274 12.1688 44.7461 11.8902 45.038 11.7079C46.0623 11.1624 47.2188 10.9138 48.3771 10.99C49.5354 11.0663 50.6492 11.4644 51.593 12.1394C52.6428 12.8986 53.5145 13.877 54.1478 15.0066C54.781 16.1361 55.1605 17.3898 55.26 18.6806C55.287 19.0611 55.312 19.4307 55.312 19.7703C55.3694 21.3955 54.9849 23.0059 54.1995 24.4304C53.414 25.8549 52.2569 27.0403 50.851 27.8606L47.442 29.5955C47.3045 29.6678 47.1513 29.7052 46.996 29.7044V29.7084Z" fill="#071C1F"/>
<path d="M28.034 24.3918C21.4086 24.2847 14.94 22.3619 9.33398 18.8334L10.35 16.4023C22.082 23.411 33.98 23.411 45.712 16.4023L46.728 18.8334C41.1228 22.3638 34.6537 24.2867 28.028 24.3918H28.034Z" fill="#071C1F"/>
</svg>
