<svg width="41" height="40" viewBox="0 0 41 40" fill="none" xmlns="http://www.w3.org/2000/svg">
<path fill-rule="evenodd" clip-rule="evenodd" d="M32.6079 19.8842L37.5229 15.1579C38.3426 14.3808 38.9955 13.4452 39.4416 12.408C39.8877 11.3709 40.1177 10.2539 40.1177 9.12506C40.1177 7.99624 39.8877 6.87923 39.4416 5.84207C38.9955 4.80492 38.3426 3.86931 37.5229 3.09226C35.8276 1.49002 33.5823 0.597168 31.2484 0.597168C28.9144 0.597168 26.6691 1.49002 24.9739 3.09226L20.0589 7.81862L15.1439 3.09426C13.4489 1.49347 11.2046 0.601527 8.87187 0.601527C6.53913 0.601527 4.29489 1.49347 2.59987 3.09426C1.7801 3.87131 1.12728 4.80691 0.681175 5.84407C0.235066 6.88123 0.00500488 7.99824 0.00500488 9.12706C0.00500488 10.2559 0.235066 11.3729 0.681175 12.41C1.12728 13.4472 1.7801 14.3828 2.59987 15.1599L7.50987 19.8842L2.59987 24.6106C1.7801 25.3876 1.12728 26.3232 0.681175 27.3604C0.235066 28.3976 0.00500488 29.5146 0.00500488 30.6434C0.00500488 31.7722 0.235066 32.8892 0.681175 33.9264C1.12728 34.9635 1.7801 35.8991 2.59987 36.6762C4.29515 38.2784 6.54044 39.1713 8.87437 39.1713C11.2083 39.1713 13.4536 38.2784 15.1489 36.6762L20.0639 31.9498L24.9789 36.6762C26.6741 38.2784 28.9194 39.1713 31.2534 39.1713C33.5873 39.1713 35.8326 38.2784 37.5279 36.6762C38.3476 35.8991 39.0005 34.9635 39.4466 33.9264C39.8927 32.8892 40.1227 31.7722 40.1227 30.6434C40.1227 29.5146 39.8927 28.3976 39.4466 27.3604C39.0005 26.3232 38.3476 25.3876 37.5279 24.6106L32.6079 19.8842ZM9.13187 18.2482L18.3569 9.37776L30.9859 21.5203L21.7609 30.3907L9.13187 18.2482ZM26.6359 4.69235C27.8822 3.51476 29.5327 2.85858 31.2484 2.85858C32.964 2.85858 34.6145 3.51476 35.8609 4.69235C36.4635 5.26364 36.9435 5.95148 37.2714 6.71398C37.5994 7.47648 37.7685 8.29768 37.7685 9.12756C37.7685 9.95744 37.5994 10.7786 37.2714 11.5411C36.9435 12.3036 36.4635 12.9915 35.8609 13.5628L30.9459 18.2861L21.7209 9.41671L26.6359 4.69235ZM4.25687 4.69235C5.50323 3.51476 7.15374 2.85858 8.86937 2.85858C10.585 2.85858 12.2355 3.51476 13.4819 4.69235L16.6999 7.77967L7.46987 16.6501L4.25687 13.5608C3.65421 12.9895 3.17429 12.3016 2.84633 11.5391C2.51837 10.7766 2.34924 9.95545 2.34924 9.12556C2.34924 8.29568 2.51837 7.47448 2.84633 6.71198C3.17429 5.94948 3.65421 5.26164 4.25687 4.69035V4.69235ZM13.4819 35.0801C12.2355 36.2577 10.585 36.9139 8.86937 36.9139C7.15374 36.9139 5.50323 36.2577 4.25687 35.0801C3.65421 34.5088 3.17429 33.821 2.84633 33.0585C2.51837 32.296 2.34924 31.4748 2.34924 30.6449C2.34924 29.815 2.51837 28.9938 2.84633 28.2313C3.17429 27.4688 3.65421 26.781 4.25687 26.2097L9.17187 21.4823L18.3999 30.3527L13.4819 35.0801ZM35.8609 35.0801C34.6146 36.2579 32.9641 36.9142 31.2484 36.9142C29.5327 36.9142 27.8821 36.2579 26.6359 35.0801L23.4229 31.9908L32.6479 23.1204L35.8609 26.2097C36.4632 26.7809 36.9429 27.4687 37.2707 28.231C37.5984 28.9933 37.7675 29.8143 37.7675 30.6439C37.7675 31.4735 37.5984 32.2945 37.2707 33.0568C36.9429 33.8191 36.4632 34.5068 35.8609 35.0781V35.0801Z" fill="#071C1F"/>
<path d="M18.4109 16.2078C19.0598 16.2078 19.5859 15.702 19.5859 15.0781C19.5859 14.4542 19.0598 13.9485 18.4109 13.9485C17.762 13.9485 17.2359 14.4542 17.2359 15.0781C17.2359 15.702 17.762 16.2078 18.4109 16.2078Z" fill="#071C1F"/>
<path fill-rule="evenodd" clip-rule="evenodd" d="M22.5649 19.0712C22.6738 18.9685 22.7606 18.8446 22.8199 18.7072C22.8793 18.5698 22.9099 18.4218 22.9099 18.2721C22.9099 18.1225 22.8793 17.9744 22.8199 17.837C22.7606 17.6996 22.6738 17.5758 22.5649 17.4731C22.3406 17.2604 22.0431 17.1418 21.7339 17.1418C21.4246 17.1418 21.1272 17.2604 20.9029 17.4731C20.7939 17.5758 20.7071 17.6996 20.6478 17.837C20.5885 17.9744 20.5579 18.1225 20.5579 18.2721C20.5579 18.4218 20.5885 18.5698 20.6478 18.7072C20.7071 18.8446 20.7939 18.9685 20.9029 19.0712C21.1273 19.2836 21.4247 19.402 21.7339 19.402C22.0431 19.402 22.3405 19.2836 22.5649 19.0712Z" fill="#071C1F"/>
<path fill-rule="evenodd" clip-rule="evenodd" d="M25.8889 22.2674C25.9978 22.1647 26.0846 22.0409 26.144 21.9035C26.2033 21.7661 26.2339 21.618 26.2339 21.4684C26.2339 21.3188 26.2033 21.1707 26.144 21.0333C26.0846 20.8959 25.9978 20.7721 25.8889 20.6694C25.6646 20.4567 25.3671 20.3381 25.0579 20.3381C24.7486 20.3381 24.4512 20.4567 24.2269 20.6694C24.1179 20.7721 24.0311 20.8959 23.9718 21.0333C23.9124 21.1707 23.8818 21.3188 23.8818 21.4684C23.8818 21.618 23.9124 21.7661 23.9718 21.9035C24.0311 22.0409 24.1179 22.1647 24.2269 22.2674C24.4512 22.4801 24.7486 22.5987 25.0579 22.5987C25.3671 22.5987 25.6646 22.4801 25.8889 22.2674Z" fill="#071C1F"/>
<path d="M15.0599 19.4297C15.7088 19.4297 16.2349 18.924 16.2349 18.3001C16.2349 17.6762 15.7088 17.1704 15.0599 17.1704C14.411 17.1704 13.8849 17.6762 13.8849 18.3001C13.8849 18.924 14.411 19.4297 15.0599 19.4297Z" fill="#071C1F"/>
<path fill-rule="evenodd" clip-rule="evenodd" d="M17.5529 20.6973C17.4439 20.8 17.3571 20.9238 17.2978 21.0612C17.2385 21.1986 17.2079 21.3467 17.2079 21.4964C17.2079 21.646 17.2385 21.7941 17.2978 21.9315C17.3571 22.0689 17.4439 22.1927 17.5529 22.2954C17.7772 22.5081 18.0746 22.6266 18.3839 22.6266C18.6932 22.6266 18.9906 22.5081 19.2149 22.2954C19.3239 22.1927 19.4107 22.0689 19.47 21.9315C19.5293 21.7941 19.5599 21.646 19.5599 21.4964C19.5599 21.3467 19.5293 21.1986 19.47 21.0612C19.4107 20.9238 19.3239 20.8 19.2149 20.6973C18.9905 20.4849 18.6931 20.3665 18.3839 20.3665C18.0747 20.3665 17.7773 20.4849 17.5529 20.6973Z" fill="#071C1F"/>
<path fill-rule="evenodd" clip-rule="evenodd" d="M22.5379 23.8925C22.3136 23.6798 22.0162 23.5613 21.7069 23.5613C21.3977 23.5613 21.1002 23.6798 20.8759 23.8925C20.767 23.9952 20.6801 24.1191 20.6208 24.2565C20.5615 24.3939 20.5309 24.5419 20.5309 24.6916C20.5309 24.8412 20.5615 24.9892 20.6208 25.1266C20.6801 25.264 20.767 25.3879 20.8759 25.4906C21.1002 25.7033 21.3977 25.8218 21.7069 25.8218C22.0162 25.8218 22.3136 25.7033 22.5379 25.4906C22.6469 25.3879 22.7337 25.264 22.793 25.1266C22.8523 24.9892 22.8829 24.8412 22.8829 24.6916C22.8829 24.5419 22.8523 24.3939 22.793 24.2565C22.7337 24.1191 22.6469 23.9952 22.5379 23.8925Z" fill="#071C1F"/>
</svg>
