<svg width="41" height="42" viewBox="0 0 41 42" fill="none" xmlns="http://www.w3.org/2000/svg">
<path d="M40.221 24.4836C40.198 24.4726 38.172 23.3429 35.432 17.1703L36.638 15.9777C36.8891 15.7294 37.0884 15.4338 37.2244 15.1081C37.3604 14.7824 37.4304 14.4329 37.4304 14.08C37.4304 13.7271 37.3604 13.3776 37.2244 13.0519C37.0884 12.7262 36.8891 12.4306 36.638 12.1823C36.3751 11.9214 36.0612 11.7174 35.716 11.583L36.638 10.6711C36.8889 10.4227 37.0881 10.1271 37.2241 9.80133C37.36 9.47561 37.43 9.12622 37.43 8.77333C37.43 8.42044 37.36 8.07104 37.2241 7.74532C37.0881 7.4196 36.8889 7.124 36.638 6.87559C36.3594 6.59962 36.024 6.38762 35.655 6.25433C35.9923 5.73863 36.1411 5.12241 36.076 4.50983C36.011 3.89725 35.7361 3.32589 35.298 2.89234C34.8548 2.45822 34.2775 2.18677 33.6601 2.1222C33.0427 2.05764 32.4216 2.20376 31.898 2.53677C31.7622 2.17067 31.5475 1.83888 31.269 1.56492C30.7581 1.05953 30.0671 0.777505 29.348 0.78086C28.6289 0.777505 27.9379 1.05953 27.427 1.56492L26.936 2.05035C26.163 1.32221 25.2764 0.724747 24.311 0.281455C24.1958 0.236368 24.0719 0.217717 23.9485 0.226879C23.825 0.236042 23.7053 0.272785 23.598 0.334392C23.3193 0.50489 23.0832 0.73664 22.9076 1.01201C22.7321 1.28738 22.6217 1.59912 22.585 1.9235C22.5 2.31004 22.467 2.38395 22.349 2.45087C22.231 2.51779 22.149 2.5098 21.769 2.38894C21.4667 2.25873 21.139 2.19812 20.8101 2.21161C20.4812 2.2251 20.1596 2.31233 19.869 2.46685C19.59 2.6365 19.3534 2.86743 19.1772 3.14209C19.001 3.41676 18.8898 3.72793 18.852 4.05196C18.767 4.4385 18.734 4.51241 18.617 4.57933C18.5 4.64625 18.417 4.63826 18.037 4.5174C17.7347 4.38719 17.407 4.32659 17.0781 4.34007C16.7492 4.35356 16.4276 4.44079 16.137 4.59531C15.8582 4.76501 15.6217 4.99598 15.4457 5.27065C15.2696 5.54531 15.1586 5.85645 15.121 6.18042C15.036 6.56696 15.003 6.64087 14.885 6.70779C14.767 6.77471 14.685 6.76672 14.305 6.64586C14.0027 6.51565 13.675 6.45505 13.3461 6.46853C13.0172 6.48202 12.6956 6.56925 12.405 6.72377C12.1284 6.89412 11.894 7.12491 11.7196 7.39877C11.5452 7.67264 11.4352 7.98244 11.398 8.30489C11.313 8.69142 11.28 8.76534 11.162 8.83226C11.044 8.89918 10.962 8.89119 10.582 8.77033C10.2797 8.64019 9.952 8.57962 9.62311 8.59311C9.29422 8.60659 8.97258 8.69379 8.68199 8.84824C8.40302 9.01789 8.16643 9.24882 7.99021 9.52348C7.81399 9.79814 7.70277 10.1093 7.66499 10.4333C7.57999 10.8199 7.54699 10.8938 7.42899 10.9607C7.31099 11.0276 7.22899 11.0196 6.84899 10.8988C6.54673 10.7686 6.219 10.708 5.8901 10.7215C5.5612 10.7349 5.23955 10.8222 4.94899 10.9767C4.85238 11.0312 4.7681 11.1051 4.70144 11.1937C4.63478 11.2823 4.58719 11.3838 4.56165 11.4916C4.5361 11.5995 4.53317 11.7115 4.55301 11.8205C4.57286 11.9296 4.61507 12.0333 4.67699 12.1253C6.17572 14.4854 7.41618 16.9995 8.37699 19.6244C7.88645 20.0483 7.56665 20.6357 7.47699 21.2774L0.976991 27.6998C0.900641 27.7742 0.839969 27.8631 0.798544 27.9613C0.757119 28.0595 0.735779 28.165 0.735779 28.2716C0.735779 28.3781 0.757119 28.4836 0.798544 28.5818C0.839969 28.68 0.900641 28.769 0.976991 28.8434L10.429 38.1862C10.5832 38.3381 10.791 38.4232 11.0075 38.4232C11.224 38.4232 11.4318 38.3381 11.586 38.1862L14.158 35.6433L15.043 36.4713V40.8241C15.0435 40.9309 15.0651 41.0365 15.1065 41.1349C15.1479 41.2334 15.2083 41.3227 15.2842 41.3978C15.3602 41.473 15.4502 41.5324 15.5492 41.5728C15.6481 41.6132 15.7541 41.6337 15.861 41.6331H31.061C31.1679 41.6337 31.2738 41.6132 31.3728 41.5728C31.4718 41.5324 31.5618 41.473 31.6378 41.3978C31.7137 41.3227 31.7741 41.2334 31.8155 41.1349C31.8569 41.0365 31.8785 40.9309 31.879 40.8241V32.0596C32.2609 31.6984 32.5079 31.2177 32.579 30.6972C32.664 30.3106 32.697 30.2367 32.815 30.1698C32.933 30.1029 33.015 30.1109 33.395 30.2317C33.6973 30.3619 34.025 30.4226 34.3539 30.4091C34.6828 30.3956 35.0044 30.3083 35.295 30.1538C35.574 29.9842 35.8105 29.7532 35.9868 29.4786C36.163 29.2039 36.2742 28.8927 36.312 28.5687C36.397 28.1822 36.43 28.1083 36.548 28.0413C36.666 27.9744 36.748 27.9824 37.128 28.1033C37.4303 28.2335 37.758 28.2941 38.0869 28.2806C38.4158 28.2671 38.7374 28.1799 39.028 28.0254C39.3068 27.8557 39.5433 27.6247 39.7193 27.35C39.8954 27.0754 40.0064 26.7642 40.044 26.4403C40.129 26.0537 40.162 25.9798 40.28 25.9129C40.4085 25.8402 40.5145 25.7336 40.5864 25.6048C40.6584 25.4761 40.6936 25.33 40.6881 25.1826C40.6826 25.0353 40.6367 24.8922 40.5554 24.7691C40.4741 24.646 40.3605 24.5476 40.227 24.4846L40.221 24.4836ZM35.798 14.08C35.7986 14.2204 35.7711 14.3595 35.7172 14.4892C35.6633 14.6188 35.584 14.7364 35.484 14.8351L34.752 15.5592C34.4767 14.8807 34.1963 14.1512 33.911 13.3708L33.957 13.3259C34.1613 13.1268 34.4355 13.0153 34.721 13.0153C35.0065 13.0153 35.2807 13.1268 35.485 13.3259C35.5851 13.4245 35.6644 13.5421 35.7183 13.6718C35.7722 13.8015 35.7997 13.9406 35.799 14.081L35.798 14.08ZM35.482 8.01623C35.5815 8.11525 35.6605 8.23292 35.7144 8.3625C35.7683 8.49208 35.796 8.63101 35.796 8.77133C35.796 8.91164 35.7683 9.05058 35.7144 9.18016C35.6605 9.30974 35.5815 9.42741 35.482 9.52643L33.276 11.7118C32.974 10.9647 32.665 10.2635 32.349 9.60833L33.949 8.02122C34.1524 7.81897 34.4275 7.705 34.7145 7.70407C35.0015 7.70313 35.2773 7.8153 35.482 8.01623ZM32.612 4.03498C32.8163 3.83585 33.0905 3.72438 33.376 3.72438C33.6615 3.72438 33.9357 3.83585 34.14 4.03498C34.2395 4.134 34.3185 4.25167 34.3724 4.38125C34.4263 4.51083 34.454 4.64976 34.454 4.79008C34.454 4.93039 34.4263 5.06933 34.3724 5.19891C34.3185 5.32848 34.2395 5.44616 34.14 5.54518L32.798 6.87259L31.571 8.08515C31.194 7.39597 30.814 6.76472 30.436 6.18741L31.27 5.36339L32.612 4.03498ZM29.348 2.39893C29.4895 2.39802 29.6299 2.42499 29.7609 2.47829C29.892 2.53159 30.0113 2.61018 30.112 2.70956C30.2114 2.80856 30.2902 2.92617 30.344 3.05566C30.3978 3.18515 30.4255 3.32396 30.4255 3.46416C30.4255 3.60435 30.3978 3.74317 30.344 3.87266C30.2902 4.00215 30.2114 4.11976 30.112 4.21876L29.487 4.83702C29.0531 4.26289 28.5895 3.7118 28.098 3.18599L28.581 2.70856C28.6817 2.60918 28.8009 2.53059 28.932 2.47729C29.0631 2.42399 29.2035 2.39703 29.345 2.39793L29.348 2.39893ZM11.02 36.4713L2.72499 28.2721L7.46099 23.5897V27.7847C7.45304 28.3535 7.58032 28.9161 7.83239 29.4262C8.08446 29.9363 8.45412 30.3795 8.91099 30.7192L12.981 34.5286L11.02 36.4713ZM30.242 40.0161H16.692V36.1207C16.6918 36.0105 16.669 35.9016 16.625 35.8005C16.581 35.6995 16.5166 35.6086 16.436 35.5334L10.017 29.5256L9.97499 29.4886C9.69742 29.3007 9.47162 29.046 9.31837 28.7481C9.16512 28.4501 9.08934 28.1185 9.09799 27.7837V21.637C9.09984 21.3525 9.21457 21.0803 9.41703 20.8801C9.61948 20.68 9.89313 20.5682 10.178 20.5693C10.4677 20.582 10.7415 20.7054 10.9429 20.914C11.1442 21.1225 11.2577 21.4002 11.26 21.6899C11.3308 22.7877 11.4599 23.8809 11.647 24.965C11.6656 25.0543 11.6995 25.1398 11.747 25.2177C12.258 26.0927 13.668 26.5162 15.619 27.1025L15.641 27.1095C15.7632 27.1462 15.8923 27.1542 16.0181 27.1327C16.1439 27.1112 16.263 27.0609 16.366 26.9856C16.4685 26.9108 16.5518 26.813 16.6093 26.7C16.6669 26.5871 16.6969 26.4621 16.697 26.3354V11.8317C16.697 11.5456 16.8108 11.2712 17.0133 11.0689C17.2159 10.8666 17.4906 10.753 17.777 10.753C18.0634 10.753 18.3381 10.8666 18.5407 11.0689C18.7432 11.2712 18.857 11.5456 18.857 11.8317V16.7059C18.857 16.9226 18.9432 17.1304 19.0966 17.2836C19.25 17.4368 19.458 17.5229 19.675 17.5229C19.8919 17.5229 20.1 17.4368 20.2534 17.2836C20.4068 17.1304 20.493 16.9226 20.493 16.7059V9.95492C20.493 9.66882 20.6068 9.39445 20.8093 9.19215C21.0119 8.98985 21.2866 8.8762 21.573 8.8762C21.8594 8.8762 22.1341 8.98985 22.3367 9.19215C22.5392 9.39445 22.653 9.66882 22.653 9.95492V20.3485C22.653 20.5652 22.7392 20.773 22.8926 20.9262C23.046 21.0795 23.254 21.1655 23.471 21.1655C23.6879 21.1655 23.896 21.0795 24.0494 20.9262C24.2028 20.773 24.289 20.5652 24.289 20.3485V11.8317C24.289 11.5455 24.4028 11.271 24.6055 11.0686C24.8081 10.8662 25.0829 10.7525 25.3695 10.7525C25.6561 10.7525 25.9309 10.8662 26.1335 11.0686C26.3362 11.271 26.45 11.5455 26.45 11.8317V20.3485C26.45 20.5652 26.5362 20.773 26.6896 20.9262C26.843 21.0795 27.051 21.1655 27.268 21.1655C27.4849 21.1655 27.693 21.0795 27.8464 20.9262C27.9998 20.773 28.086 20.5652 28.086 20.3485V15.5842C28.086 15.2981 28.1998 15.0237 28.4023 14.8214C28.6049 14.6191 28.8796 14.5055 29.166 14.5055C29.4524 14.5055 29.7271 14.6191 29.9297 14.8214C30.1322 15.0237 30.246 15.2981 30.246 15.5842V40.0151L30.242 40.0161ZM38.442 26.0967C38.357 26.4832 38.324 26.5571 38.206 26.624C38.088 26.691 38.006 26.683 37.626 26.5621C37.3237 26.4319 36.996 26.3713 36.6671 26.3848C36.3382 26.3983 36.0166 26.4855 35.726 26.64C35.447 26.8097 35.2104 27.0406 35.0342 27.3153C34.858 27.5899 34.7468 27.9011 34.709 28.2251C34.624 28.6117 34.591 28.6856 34.473 28.7525C34.355 28.8194 34.273 28.8104 33.893 28.6906C33.5907 28.5604 33.263 28.4998 32.9341 28.5132C32.6052 28.5267 32.2836 28.614 31.993 28.7685C31.952 28.7924 31.913 28.8164 31.875 28.8414V15.5852C31.8699 15.1374 31.7541 14.6978 31.5379 14.3055C31.3218 13.9132 31.0119 13.5803 30.6358 13.3365C30.2598 13.0927 29.8292 12.9454 29.3825 12.9078C28.9357 12.8703 28.4866 12.9435 28.075 13.1211V11.8317C28.0695 11.3789 27.9508 10.9346 27.7298 10.5393C27.5087 10.144 27.1923 9.81007 26.8092 9.56794C26.4261 9.32581 25.9885 9.18312 25.5361 9.15285C25.0838 9.12257 24.631 9.20567 24.219 9.39459C24.0836 8.79166 23.7467 8.25275 23.2638 7.86658C22.7808 7.48041 22.1806 7.27001 21.562 7.27001C20.9434 7.27001 20.3432 7.48041 19.8602 7.86658C19.3773 8.25275 19.0404 8.79166 18.905 9.39459C18.493 9.20567 18.0402 9.12257 17.5879 9.15285C17.1355 9.18312 16.6979 9.32581 16.3148 9.56794C15.9317 9.81007 15.6153 10.144 15.3942 10.5393C15.1731 10.9346 15.0545 11.3789 15.049 11.8317V25.2387C14.659 25.1148 14.301 24.994 13.997 24.8731C13.7173 24.7768 13.4532 24.6402 13.213 24.4676C13.069 23.6386 12.942 22.422 12.887 21.584C12.8598 20.8808 12.5626 20.2151 12.0571 19.7249C11.5516 19.2346 10.8765 18.9576 10.172 18.9512C10.0718 18.9511 9.97163 18.9564 9.87199 18.9672C9.05116 16.756 8.04562 14.6177 6.86599 12.5748C7.33486 12.6746 7.82413 12.597 8.23899 12.3571C8.51796 12.1874 8.75455 11.9565 8.93077 11.6818C9.10699 11.4071 9.21822 11.096 9.25599 10.7719C9.34099 10.3854 9.37399 10.3115 9.49199 10.2446C9.60999 10.1777 9.69199 10.1856 10.072 10.3065C10.3743 10.4367 10.702 10.4973 11.0309 10.4838C11.3598 10.4703 11.6814 10.3831 11.972 10.2286C12.252 10.0604 12.49 9.83074 12.6678 9.55693C12.8456 9.28312 12.9585 8.97243 12.998 8.64848C13.083 8.26194 13.116 8.18802 13.234 8.1211C13.352 8.05418 13.434 8.06217 13.814 8.18303C14.1163 8.31324 14.444 8.37385 14.7729 8.36036C15.1018 8.34688 15.4234 8.25964 15.714 8.10512C15.9921 7.93461 16.2277 7.70307 16.4028 7.42808C16.578 7.15309 16.6882 6.84187 16.725 6.51802C16.81 6.13148 16.843 6.05757 16.961 5.99065C17.079 5.92373 17.161 5.93271 17.541 6.05257C17.8433 6.18278 18.171 6.24339 18.4999 6.2299C18.8288 6.21642 19.1504 6.12918 19.441 5.97466C19.7193 5.80478 19.9552 5.57386 20.1309 5.2994C20.3066 5.02494 20.4174 4.71414 20.455 4.39055C20.54 4.00402 20.573 3.9301 20.691 3.86318C20.809 3.79626 20.891 3.80425 21.271 3.92511C21.5733 4.05532 21.901 4.11593 22.2299 4.10244C22.5588 4.08895 22.8804 4.00172 23.171 3.8472C23.45 3.67755 23.6865 3.44662 23.8628 3.17196C24.039 2.89729 24.1502 2.58613 24.188 2.26209C24.205 2.18319 24.221 2.11627 24.235 2.06233C25.119 2.60895 25.9287 3.26728 26.644 4.02099C29.1927 6.80843 31.1166 10.107 32.287 13.6965C35.024 21.2734 37.446 24.2339 38.678 25.3396C38.5684 25.5821 38.4885 25.837 38.44 26.0987L38.442 26.0967Z" fill="#071C1F"/>
<path d="M19.67 19.5405C19.5102 19.5423 19.3545 19.5913 19.2224 19.6812C19.0904 19.7712 18.988 19.8982 18.9281 20.0462C18.8682 20.1941 18.8534 20.3565 18.8857 20.5128C18.9179 20.6692 18.9958 20.8125 19.1094 20.9248C19.223 21.037 19.3674 21.1132 19.5242 21.1437C19.6811 21.1742 19.8435 21.1576 19.991 21.0961C20.1385 21.0346 20.2645 20.9309 20.3531 20.7981C20.4417 20.6653 20.489 20.5092 20.489 20.3496C20.4885 20.2427 20.4669 20.137 20.4254 20.0385C20.3839 19.94 20.3235 19.8506 20.2474 19.7755C20.1713 19.7004 20.0812 19.6409 19.9821 19.6006C19.883 19.5603 19.777 19.5399 19.67 19.5405Z" fill="#071C1F"/>
</svg>
