<svg width="16" height="19" viewBox="0 0 16 19" fill="none" xmlns="http://www.w3.org/2000/svg">
<path d="M7.94192 9.20909C8.98824 9.20897 10.0022 8.84608 10.8109 8.18226C11.6197 7.51844 12.1733 6.59477 12.3775 5.56856C12.5816 4.54234 12.4237 3.47708 11.9305 2.55427C11.4373 1.63146 10.6395 0.908155 9.67286 0.507612C8.70624 0.107068 7.63064 0.0540566 6.62931 0.357587C5.62798 0.661118 4.76286 1.30242 4.18133 2.17225C3.59979 3.04209 3.33782 4.08663 3.44004 5.12794C3.54226 6.16926 4.00234 7.14295 4.74191 7.8831C5.15684 8.31045 5.65472 8.64849 6.205 8.87651C6.75527 9.10453 7.34633 9.21771 7.94192 9.20909ZM5.52392 2.26109C6.08352 1.70002 6.82037 1.35035 7.6089 1.27168C8.39743 1.19301 9.18884 1.39021 9.84826 1.82966C10.5077 2.26912 10.9943 2.92364 11.2253 3.68168C11.4562 4.43973 11.4171 5.2544 11.1147 5.98686C10.8123 6.71932 10.2652 7.32427 9.56675 7.69859C8.86829 8.07291 8.06165 8.19343 7.28427 8.03966C6.50689 7.88588 5.80689 7.46729 5.30355 6.85524C4.80021 6.24318 4.52468 5.47553 4.52392 4.68309C4.51411 4.23218 4.59791 3.78414 4.77003 3.36726C4.94215 2.95038 5.19885 2.57373 5.52392 2.26109Z" fill="#202834"/>
<path d="M15.8509 14.6061C15.8209 14.208 15.7699 13.8118 15.6979 13.4191C15.6269 13.0151 15.5294 12.6162 15.4059 12.2251C15.2814 11.8382 15.1172 11.4652 14.9159 11.1121C14.718 10.756 14.469 10.4309 14.1769 10.1471C13.8698 9.8574 13.509 9.63048 13.1149 9.47909C12.6829 9.312 12.2231 9.22851 11.7599 9.23309C11.4897 9.26211 11.2343 9.37071 11.0259 9.5451C10.8049 9.6891 10.5479 9.8561 10.2599 10.0401C9.94908 10.2256 9.61657 10.372 9.26989 10.4761C8.48364 10.737 7.63415 10.737 6.8479 10.4761C6.50107 10.3724 6.16851 10.226 5.85789 10.0401C5.57289 9.8571 5.31489 9.6921 5.09189 9.5451C4.88315 9.37069 4.62736 9.2621 4.35689 9.23309C3.89372 9.22851 3.4339 9.312 3.00189 9.47909C2.60803 9.63099 2.24737 9.85784 1.93989 10.1471C1.64805 10.431 1.39941 10.7561 1.2019 11.1121C1.0006 11.4652 0.836387 11.8382 0.711894 12.2251C0.588523 12.6163 0.49098 13.0151 0.419894 13.4191C0.347267 13.812 0.29619 14.2086 0.266894 14.6071C0.242894 14.9651 0.229895 15.3391 0.229895 15.7171C0.210673 16.1533 0.283152 16.5888 0.442652 16.9953C0.602153 17.4018 0.845128 17.7703 1.15589 18.0771C1.8043 18.6709 2.66137 18.9841 3.53989 18.9481H12.5759C13.4547 18.9839 14.312 18.6708 14.9609 18.0771C15.2716 17.7703 15.5145 17.4018 15.6739 16.9953C15.8332 16.5887 15.9054 16.1533 15.8859 15.7171C15.8879 15.3371 15.8759 14.9681 15.8509 14.6061ZM14.2049 17.2791C13.9845 17.4763 13.7273 17.628 13.4481 17.7255C13.1689 17.823 12.8731 17.8643 12.5779 17.8471H3.5419C3.24679 17.8645 2.95117 17.8232 2.67209 17.7257C2.39301 17.6282 2.136 17.4764 1.91589 17.2791C1.71381 17.0747 1.55729 16.8299 1.45664 16.5606C1.35598 16.2914 1.31347 16.0039 1.33189 15.7171C1.33189 15.3641 1.34389 15.0171 1.36689 14.6841C1.39352 14.3252 1.43925 13.9681 1.50389 13.6141C1.56646 13.2579 1.65231 12.9061 1.76089 12.5611C1.86286 12.2465 1.9969 11.9433 2.16089 11.6561C2.30648 11.3937 2.48939 11.1539 2.70389 10.9441C2.90856 10.7531 3.14832 10.6037 3.4099 10.5041C3.68676 10.3975 3.98026 10.3406 4.27689 10.3361C4.31489 10.3561 4.38389 10.3961 4.4939 10.4681C4.72089 10.6151 4.98089 10.7841 5.26889 10.9681C5.65826 11.2048 6.07588 11.3916 6.51189 11.5241C7.51841 11.857 8.60538 11.857 9.6119 11.5241C10.0479 11.3916 10.4655 11.2048 10.8549 10.9681C11.1499 10.7791 11.4029 10.6151 11.6289 10.4681C11.7399 10.3961 11.8079 10.3561 11.8469 10.3361C12.1435 10.3407 12.437 10.3976 12.7139 10.5041C12.9753 10.6035 13.2148 10.7529 13.4189 10.9441C13.6343 11.1537 13.8176 11.3939 13.9629 11.6571C14.1268 11.9425 14.2609 12.2441 14.3629 12.5571C14.4715 12.9021 14.5573 13.2539 14.6199 13.6101C14.6845 13.9641 14.7302 14.3212 14.7569 14.6801C14.7799 15.0121 14.7919 15.3601 14.7919 15.7131C14.8103 16.0008 14.7674 16.2891 14.6662 16.559C14.5651 16.8289 14.4078 17.0743 14.2049 17.2791Z" fill="#202834"/>
</svg>
