<svg width="162" height="43" viewBox="0 0 162 43" fill="none" xmlns="http://www.w3.org/2000/svg">
<path d="M67.232 3.712L56.144 29.122L45.056 3.712H50.798L56.342 17.407L61.556 3.712H67.232ZM75.2948 13.579V28H70.6748V13.579H75.2948ZM70.5758 8.464C70.5758 7.804 70.8288 7.254 71.3348 6.814C71.8628 6.352 72.4568 6.121 73.1168 6.121C73.7548 6.121 74.3268 6.352 74.8328 6.814C75.3388 7.254 75.5918 7.804 75.5918 8.464C75.5918 9.124 75.3388 9.674 74.8328 10.114C74.3268 10.554 73.7548 10.774 73.1168 10.774C72.4568 10.774 71.8628 10.554 71.3348 10.114C70.8288 9.674 70.5758 9.124 70.5758 8.464ZM92.2958 26.713C91.6578 27.219 90.8548 27.626 89.8868 27.934C88.9408 28.242 88.0058 28.396 87.0818 28.396C84.5738 28.396 82.5828 27.725 81.1088 26.383C79.6568 25.019 78.9308 23.149 78.9308 20.773C78.9308 19.233 79.2828 17.891 79.9868 16.747C80.7128 15.581 81.6588 14.701 82.8248 14.107C83.9908 13.491 85.2448 13.183 86.5868 13.183C88.9848 13.183 90.9318 13.821 92.4278 15.097L90.1838 18.067C89.2378 17.319 88.1818 16.945 87.0158 16.945C86.0478 16.945 85.2228 17.308 84.5408 18.034C83.8808 18.76 83.5508 19.673 83.5508 20.773C83.5508 21.873 83.9138 22.797 84.6398 23.545C85.3658 24.271 86.3118 24.634 87.4778 24.634C88.4898 24.634 89.3258 24.359 89.9858 23.809L92.2958 26.713ZM94.7218 20.608C94.7218 19.134 95.0628 17.814 95.7448 16.648C96.4488 15.482 97.4278 14.569 98.6818 13.909C99.9578 13.227 101.399 12.886 103.005 12.886C104.611 12.886 106.019 13.227 107.229 13.909C108.461 14.569 109.407 15.482 110.067 16.648C110.727 17.814 111.057 19.134 111.057 20.608C111.057 22.082 110.727 23.413 110.067 24.601C109.407 25.789 108.461 26.724 107.229 27.406C106.019 28.066 104.589 28.396 102.939 28.396C101.333 28.396 99.9028 28.088 98.6488 27.472C97.4168 26.834 96.4488 25.932 95.7448 24.766C95.0628 23.6 94.7218 22.214 94.7218 20.608ZM99.3748 20.641C99.3748 21.785 99.7048 22.742 100.365 23.512C101.025 24.26 101.861 24.634 102.873 24.634C103.929 24.634 104.776 24.26 105.414 23.512C106.074 22.764 106.404 21.807 106.404 20.641C106.404 19.475 106.074 18.518 105.414 17.77C104.776 17.022 103.929 16.648 102.873 16.648C101.861 16.648 101.025 17.033 100.365 17.803C99.7048 18.551 99.3748 19.497 99.3748 20.641ZM130.536 1.963V28H125.916V26.482C124.244 27.758 122.462 28.396 120.57 28.396C119.228 28.396 118.029 28.077 116.973 27.439C115.917 26.801 115.081 25.888 114.465 24.7C113.871 23.512 113.574 22.115 113.574 20.509C113.574 18.925 113.893 17.561 114.531 16.417C115.191 15.251 116.093 14.371 117.237 13.777C118.381 13.161 119.69 12.853 121.164 12.853C122.11 12.853 123.001 13.007 123.837 13.315C124.673 13.601 125.377 14.03 125.949 14.602V1.963H130.536ZM122.088 24.502C123.012 24.502 123.782 24.326 124.398 23.974C125.014 23.6 125.52 23.05 125.916 22.324V18.793C125.652 18.089 125.179 17.528 124.497 17.11C123.815 16.692 123.012 16.483 122.088 16.483C121.054 16.483 120.152 16.857 119.382 17.605C118.634 18.353 118.26 19.299 118.26 20.443C118.26 21.191 118.436 21.884 118.788 22.522C119.14 23.138 119.602 23.622 120.174 23.974C120.768 24.326 121.406 24.502 122.088 24.502ZM139.909 13.579V28H135.289V13.579H139.909ZM135.19 8.464C135.19 7.804 135.443 7.254 135.949 6.814C136.477 6.352 137.071 6.121 137.731 6.121C138.369 6.121 138.941 6.352 139.447 6.814C139.953 7.254 140.206 7.804 140.206 8.464C140.206 9.124 139.953 9.674 139.447 10.114C138.941 10.554 138.369 10.774 137.731 10.774C137.071 10.774 136.477 10.554 135.949 10.114C135.443 9.674 135.19 9.124 135.19 8.464ZM154.699 12.886C156.063 12.886 157.196 13.293 158.098 14.107C159.022 14.921 159.495 15.955 159.517 17.209V28H154.897V18.925C154.831 17.517 154.127 16.813 152.785 16.813C151.729 16.813 150.882 17.308 150.244 18.298C149.606 19.288 149.287 20.564 149.287 22.126V28H144.667V13.579H148.858L149.188 15.889C149.716 14.943 150.442 14.206 151.366 13.678C152.312 13.15 153.423 12.886 154.699 12.886Z" fill="#232323"/>
<path style="mix-blend-mode:multiply" d="M36.214 39.6361C36.214 40.9911 28.107 42.0881 18.107 42.0881C8.107 42.0881 0 40.9881 0 39.6361C0 38.2841 8.107 37.1841 18.107 37.1841C28.107 37.1841 36.214 38.2821 36.214 39.6361Z" fill="url(#paint0_radial_1_1307)"/>
<path d="M35.934 7.92598C34.728 0.898984 27.1 -2.28102 21.581 1.81398C20.3322 2.88113 19.1708 4.04652 18.108 5.29899C17.045 4.04666 15.8837 2.88129 14.635 1.81398C9.11601 -2.28102 1.48801 0.898984 0.282011 7.92598C-0.188555 10.4644 -0.0715659 13.0768 0.62401 15.563C1.33201 15.519 2.04001 15.474 2.74701 15.443L5.27501 15.32C5.57501 14.734 5.87501 14.152 6.17501 13.567L7.26501 11.442C7.98501 10.02 8.75301 8.62598 9.49501 7.21698L10.665 4.99099L11.422 7.44598C11.798 8.66298 12.196 9.87398 12.552 11.098L13.644 14.761C14.003 15.972 14.371 17.18 14.715 18.396L15.4 16.186C15.71 15.202 16 14.212 16.325 13.231L17.282 10.285L17.901 8.37899L18.827 10.067C19.088 10.544 19.359 11.016 19.614 11.498L20.381 12.941L21.147 14.386L21.788 15.641C23.145 15.696 24.502 15.763 25.859 15.834C27.309 15.904 28.759 15.991 30.206 16.087C28.7573 16.183 27.3083 16.2673 25.859 16.34C24.41 16.417 22.959 16.489 21.512 16.54L21.295 16.548L21.132 16.325L20.171 15.006L19.232 13.672L18.467 12.583L18.167 13.783C17.919 14.783 17.642 15.783 17.381 16.783L16.586 19.777C16.326 20.777 16.042 21.769 15.77 22.765L14.739 26.537L13.587 22.768C13.215 21.55 12.859 20.327 12.498 19.104C12.137 17.881 11.792 16.655 11.443 15.429L10.407 11.748C10.283 11.322 10.169 10.894 10.052 10.467C9.67401 11.113 9.29401 11.757 8.90201 12.395L7.66501 14.439C7.25101 15.118 6.84701 15.804 6.42401 16.478L6.16201 16.897L5.75301 16.877L2.74401 16.729C2.15601 16.703 1.56801 16.669 0.97901 16.629C1.69789 18.5257 2.78858 20.2597 4.18701 21.729C6.91101 24.621 16.307 33.518 18.104 35.244C19.904 33.518 29.298 24.621 32.022 21.729C33.7357 19.9122 34.9861 17.709 35.6671 15.3062C36.3481 12.9034 36.4396 10.3717 35.934 7.92598Z" fill="url(#paint1_radial_1_1307)"/>
<path style="mix-blend-mode:screen" d="M7.65102 1.94604C7.65102 1.94604 -2.42198 4.78104 3.77702 19.323C3.77302 19.324 1.45102 9.78904 7.65102 1.94604Z" fill="url(#paint2_linear_1_1307)"/>
<defs>
<radialGradient id="paint0_radial_1_1307" cx="0" cy="0" r="1" gradientUnits="userSpaceOnUse" gradientTransform="translate(-29.3197 6326.75) scale(17.9307 2.06023)">
<stop stop-color="#C4C4C4"/>
<stop offset="0.208" stop-color="#D9D9D9"/>
<stop offset="0.479" stop-color="#EEEEEE"/>
<stop offset="0.746" stop-color="#FAFAFA"/>
<stop offset="1" stop-color="white"/>
</radialGradient>
<radialGradient id="paint1_radial_1_1307" cx="0" cy="0" r="1" gradientUnits="userSpaceOnUse" gradientTransform="translate(5.66622 3.13672) scale(27.6823 28.2657)">
<stop stop-color="#12AB81"/>
<stop offset="1" stop-color="#10AB81"/>
</radialGradient>
<linearGradient id="paint2_linear_1_1307" x1="28.5735" y1="10.6345" x2="34.4638" y2="10.6345" gradientUnits="userSpaceOnUse">
<stop/>
<stop offset="1" stop-color="#8C8C8C"/>
</linearGradient>
</defs>
</svg>
