<svg width="571" height="479" viewBox="0 0 571 479" fill="none" xmlns="http://www.w3.org/2000/svg">
<path opacity="0.09" d="M486.473 28.598C364.493 -61.172 286.347 89.082 286.347 89.082C286.347 89.082 208.2 -61.172 86.219 28.598C-53.388 131.34 77.519 433.875 286.347 478.637C495.174 433.875 626.082 131.34 486.473 28.598Z" fill="#9BA3C4"/>
<path opacity="0.43" d="M25.907 237.758H17.071V227.219H9.541V237.758H0.703003V246.739H9.54V257.277H17.07V246.738H25.907V237.758Z" fill="#0A9A73"/>
<g opacity="0.37">
<path d="M570.293 99.38H564.752V92.772H560.033V99.38H554.493V105.012H560.034V111.621H564.756V105.012H570.293V99.38Z" fill="#0A9A73"/>
</g>
<path d="M285.073 451.998C491.826 359.786 478.717 111.798 478.717 111.798C413.282 63.423 285.073 43.842 285.073 43.842C285.073 43.842 156.866 63.428 91.431 111.798C91.431 111.798 78.319 359.789 285.073 451.998Z" fill="url(#paint0_linear_1_1144)" stroke="#707070" stroke-miterlimit="10"/>
<path d="M285.073 431.161C209.013 394.595 156.624 330.981 129.299 241.954C117.415 202.91 111.137 162.376 110.653 121.566C167.761 84.0841 266.576 66.0451 285.071 62.9221C303.544 66.0491 402.446 84.1431 459.481 121.556C458.967 162.756 452.578 203.672 440.507 243.067C413.073 331.518 360.802 394.755 285.073 431.161Z" fill="url(#paint1_linear_1_1144)"/>
<path d="M285.073 426.956C210.957 390.746 159.8 328.151 133.012 240.88C121.461 202.818 115.245 163.339 114.543 123.569C170.494 87.747 264.78 70.2 285.069 66.741C305.369 70.213 399.714 87.812 455.588 123.557C454.86 163.715 448.532 203.575 436.788 241.984C409.901 328.686 358.863 390.908 285.073 426.956Z" fill="url(#paint2_radial_1_1144)"/>
<path d="M353.491 213.845H306.291V168.045C306.291 156.718 296.738 147.445 285.064 147.445C273.39 147.445 263.839 156.714 263.839 168.045V213.845H216.639C204.965 213.845 195.412 223.114 195.412 234.445C195.412 245.772 204.965 255.039 216.639 255.039H263.839V300.839C263.839 312.166 273.39 321.439 285.064 321.439C296.738 321.439 306.291 312.17 306.291 300.839V255.039H353.491C365.165 255.039 374.718 245.772 374.718 234.445C374.717 223.113 365.165 213.845 353.491 213.845Z" fill="url(#paint3_linear_1_1144)"/>
<path d="M285.065 317.665C280.534 317.728 276.163 315.991 272.911 312.836C269.659 309.681 267.79 305.365 267.716 300.834V251.271H216.641C214.387 251.341 212.142 250.957 210.039 250.142C207.936 249.327 206.018 248.099 204.399 246.529C202.78 244.959 201.493 243.08 200.614 241.003C199.735 238.926 199.282 236.694 199.282 234.439C199.282 232.184 199.735 229.952 200.614 227.875C201.493 225.798 202.78 223.919 204.399 222.349C206.018 220.779 207.936 219.551 210.039 218.736C212.142 217.921 214.387 217.538 216.641 217.607H267.716V168.045C267.844 163.529 269.729 159.241 272.968 156.092C276.208 152.943 280.548 151.181 285.066 151.181C289.584 151.181 293.924 152.943 297.164 156.092C300.403 159.241 302.288 163.529 302.416 168.045V217.608H353.492C355.746 217.538 357.991 217.922 360.094 218.737C362.197 219.552 364.115 220.78 365.734 222.35C367.353 223.92 368.64 225.799 369.519 227.876C370.398 229.953 370.851 232.185 370.851 234.44C370.851 236.695 370.398 238.927 369.519 241.004C368.64 243.081 367.353 244.96 365.734 246.53C364.115 248.1 362.197 249.328 360.094 250.143C357.991 250.958 355.746 251.342 353.492 251.272H302.416V300.835C302.341 305.366 300.472 309.682 297.219 312.837C293.967 315.991 289.596 317.728 285.065 317.665Z" fill="url(#paint4_linear_1_1144)"/>
<defs>
<linearGradient id="paint0_linear_1_1144" x1="91.2649" y1="247.92" x2="478.883" y2="247.92" gradientUnits="userSpaceOnUse">
<stop stop-color="#E9E9E9"/>
<stop offset="0.009" stop-color="#C9C9C9"/>
<stop offset="0.02" stop-color="#AFAFAF"/>
<stop offset="0.031" stop-color="#999999"/>
<stop offset="0.045" stop-color="#888888"/>
<stop offset="0.062" stop-color="#7C7C7C"/>
<stop offset="0.086" stop-color="#757575"/>
<stop offset="0.153" stop-color="#747474"/>
<stop offset="0.29" stop-color="white"/>
<stop offset="0.493" stop-color="#A1A1A1"/>
<stop offset="0.495" stop-color="#9A9A9A"/>
<stop offset="0.497" stop-color="#898989"/>
<stop offset="0.499" stop-color="#6C6C6C"/>
<stop offset="0.501" stop-color="#494949"/>
<stop offset="0.615" stop-color="#494949"/>
<stop offset="0.778" stop-color="#E3E3E3"/>
<stop offset="0.914" stop-color="#929292"/>
<stop offset="1" stop-color="#CCCCCC"/>
</linearGradient>
<linearGradient id="paint1_linear_1_1144" x1="110.653" y1="247.042" x2="459.481" y2="247.042" gradientUnits="userSpaceOnUse">
<stop offset="0.086" stop-color="#686868"/>
<stop offset="0.222" stop-color="#B9B9B9"/>
<stop offset="0.385" stop-color="#383838"/>
<stop offset="0.499" stop-color="#494949"/>
<stop offset="0.501" stop-color="#5F5F5F"/>
<stop offset="0.504" stop-color="#707070"/>
<stop offset="0.507" stop-color="#777777"/>
<stop offset="0.847" stop-color="#4A4A4A"/>
<stop offset="0.914" stop-color="#4B4B4B"/>
<stop offset="0.938" stop-color="#525252"/>
<stop offset="0.955" stop-color="#5E5E5E"/>
<stop offset="0.969" stop-color="#6F6F6F"/>
<stop offset="0.98" stop-color="#858585"/>
<stop offset="0.991" stop-color="#9F9F9F"/>
<stop offset="1" stop-color="#C0C0C0"/>
</linearGradient>
<radialGradient id="paint2_radial_1_1144" cx="0" cy="0" r="1" gradientUnits="userSpaceOnUse" gradientTransform="translate(334.229 246.848) scale(253.665 246.027)">
<stop stop-color="#30C89F"/>
<stop offset="0.395" stop-color="#0A9A73"/>
<stop offset="0.518" stop-color="#0A9A73"/>
<stop offset="0.689" stop-color="#0A9A73"/>
<stop offset="0.773" stop-color="#0A9A73"/>
<stop offset="1" stop-color="#0A9A73"/>
</radialGradient>
<linearGradient id="paint3_linear_1_1144" x1="195.412" y1="234.442" x2="374.718" y2="234.442" gradientUnits="userSpaceOnUse">
<stop stop-color="#E9E9E9"/>
<stop offset="0.009" stop-color="#C9C9C9"/>
<stop offset="0.02" stop-color="#AFAFAF"/>
<stop offset="0.031" stop-color="#999999"/>
<stop offset="0.045" stop-color="#888888"/>
<stop offset="0.062" stop-color="#7C7C7C"/>
<stop offset="0.086" stop-color="#757575"/>
<stop offset="0.153" stop-color="#747474"/>
<stop offset="0.29" stop-color="white"/>
<stop offset="0.493" stop-color="#A1A1A1"/>
<stop offset="0.495" stop-color="#9A9A9A"/>
<stop offset="0.497" stop-color="#898989"/>
<stop offset="0.499" stop-color="#6C6C6C"/>
<stop offset="0.501" stop-color="#494949"/>
<stop offset="0.615" stop-color="#494949"/>
<stop offset="0.778" stop-color="#E3E3E3"/>
<stop offset="0.914" stop-color="#929292"/>
<stop offset="1" stop-color="#CCCCCC"/>
</linearGradient>
<linearGradient id="paint4_linear_1_1144" x1="285.067" y1="317.667" x2="285.067" y2="151.181" gradientUnits="userSpaceOnUse">
<stop stop-color="#9A9AAA"/>
<stop offset="0.175" stop-color="#A9A9B6"/>
<stop offset="0.513" stop-color="#D1D1D8"/>
<stop offset="0.847" stop-color="white"/>
</linearGradient>
</defs>
</svg>
