<svg width="38" height="51" viewBox="0 0 38 51" fill="none" xmlns="http://www.w3.org/2000/svg">
<path d="M14.272 38.7347H1.872C1.72646 38.7376 1.58179 38.7117 1.44637 38.6583C1.31095 38.605 1.18748 38.5253 1.08312 38.4239C0.978754 38.3226 0.895569 38.2015 0.838387 38.0678C0.781204 37.9341 0.751162 37.7904 0.75 37.645V34.9692C0.751818 34.8242 0.782344 34.6811 0.839819 34.5479C0.897294 34.4148 0.980581 34.2943 1.08488 34.1935C1.18918 34.0927 1.31243 34.0135 1.44752 33.9604C1.58261 33.9074 1.72688 33.8816 1.872 33.8845H14.272C14.4171 33.8816 14.5614 33.9074 14.6965 33.9604C14.8316 34.0135 14.9548 34.0927 15.0591 34.1935C15.1634 34.2943 15.2467 34.4148 15.3042 34.5479C15.3617 34.6811 15.3922 34.8242 15.394 34.9692V37.65C15.3921 37.7949 15.3614 37.938 15.3039 38.071C15.2464 38.204 15.1631 38.3243 15.0588 38.4251C14.9545 38.5258 14.8313 38.6049 14.6963 38.6579C14.5612 38.7109 14.417 38.7366 14.272 38.7337V38.7347ZM2.25 37.2874H13.896V35.3348H2.25V37.2874Z" fill="#071C1F"/>
<path d="M26.496 50.6435H11.796C11.3672 50.6461 10.9466 50.5257 10.5843 50.2966C10.222 50.0675 9.93311 49.7393 9.75201 49.351C9.57804 48.9672 9.52317 48.54 9.59446 48.1247C9.66576 47.7094 9.85995 47.3249 10.152 47.0208L13.634 43.3492C13.7707 43.2075 13.9568 43.1239 14.1537 43.1157C14.3505 43.1075 14.543 43.1754 14.691 43.3053C14.7631 43.3681 14.8217 43.4449 14.8633 43.531C14.9049 43.6172 14.9285 43.7108 14.9328 43.8063C14.9371 43.9018 14.922 43.9972 14.8883 44.0867C14.8547 44.1762 14.8032 44.258 14.737 44.327L11.253 47.9987C11.1569 48.0994 11.0931 48.2265 11.0698 48.3637C11.0465 48.5009 11.0646 48.6419 11.122 48.7687C11.1816 48.897 11.2768 49.0055 11.3962 49.0815C11.5157 49.1574 11.6544 49.1976 11.796 49.1972H26.496C26.638 49.1984 26.7774 49.1587 26.8974 49.0829C27.0175 49.0071 27.1131 48.8984 27.173 48.7697C27.2305 48.6427 27.2486 48.5014 27.2251 48.364C27.2016 48.2266 27.1375 48.0994 27.041 47.9987L23.56 44.327C23.4938 44.2579 23.4423 44.176 23.4086 44.0865C23.375 43.9969 23.3598 43.9014 23.3641 43.8058C23.3684 43.7102 23.3921 43.6165 23.4337 43.5303C23.4752 43.4441 23.5339 43.3672 23.606 43.3043C23.7542 43.1745 23.9467 43.1068 24.1435 43.1152C24.3404 43.1236 24.5264 43.2074 24.663 43.3492L28.143 47.0208C28.4353 47.325 28.6296 47.7096 28.7009 48.1252C28.7722 48.5407 28.7172 48.968 28.543 49.352C28.3617 49.7405 28.0725 50.0687 27.7098 50.2977C27.3471 50.5267 26.9251 50.6467 26.496 50.6435Z" fill="#071C1F"/>
<path d="M19.146 45.3368C16.4927 45.3478 13.8751 44.7262 11.5106 43.5237C9.14605 42.3212 7.10296 40.5726 5.55101 38.423C5.49535 38.345 5.45607 38.2566 5.43556 38.163C5.41505 38.0695 5.41373 37.9727 5.43167 37.8787C5.44961 37.7846 5.48645 37.6951 5.53996 37.6156C5.59347 37.5361 5.66254 37.4683 5.74301 37.4162C5.90691 37.307 6.1067 37.2653 6.30068 37.2997C6.49466 37.3341 6.66783 37.4421 6.78401 37.601C8.41905 39.8666 10.6481 41.6379 13.2259 42.7199C15.8038 43.8019 18.6305 44.1527 21.395 43.7337C24.1462 43.3536 26.7357 42.2109 28.8695 40.4351C31.0033 38.6594 32.5961 36.3218 33.467 33.6877C34.2954 31.0773 34.3499 28.2832 33.624 25.6425C32.8981 23.0019 31.4228 20.6273 29.376 18.8054C29.3043 18.742 29.2462 18.6647 29.2052 18.5782C29.1643 18.4917 29.1413 18.3978 29.1378 18.3022C29.1342 18.2065 29.1502 18.1112 29.1846 18.0219C29.219 17.9326 29.2712 17.8512 29.338 17.7826C29.4757 17.6419 29.6623 17.5596 29.8591 17.5527C30.0559 17.5458 30.2479 17.6149 30.395 17.7457C32.8022 19.8842 34.4877 22.7145 35.2202 25.848C35.9527 28.9815 35.6962 32.2647 34.486 35.2468C33.2194 38.2588 31.0844 40.8263 28.3526 42.6227C25.6207 44.4191 22.4156 45.3632 19.145 45.3348L19.146 45.3368Z" fill="#071C1F"/>
<path d="M19.146 41.5034C16.1631 41.5083 13.2732 40.4673 10.98 38.562C10.9059 38.5013 10.8448 38.4263 10.8006 38.3414C10.7564 38.2565 10.7298 38.1635 10.7226 38.068C10.7154 37.9726 10.7277 37.8767 10.7587 37.7861C10.7897 37.6956 10.8388 37.6122 10.903 37.5412C11.0355 37.3955 11.2191 37.3066 11.4156 37.2928C11.6122 37.279 11.8064 37.3415 11.958 37.4673C14.1335 39.278 16.9116 40.2045 19.7398 40.0626C22.5681 39.9206 25.2392 38.7206 27.222 36.7012C28.1844 35.7186 28.9424 34.5553 29.4521 33.2784C29.9619 32.0016 30.2134 30.6365 30.192 29.2621C30.1706 27.8877 29.8768 26.5311 29.3276 25.2707C28.7783 24.0103 27.9845 22.8711 26.992 21.9188C26.9232 21.8524 26.8685 21.7727 26.8314 21.6846C26.7943 21.5965 26.7754 21.5017 26.776 21.4061C26.7765 21.3105 26.7965 21.216 26.8347 21.1284C26.8728 21.0407 26.9284 20.9616 26.998 20.896C27.1413 20.7609 27.3312 20.6862 27.5282 20.6873C27.7252 20.6884 27.9143 20.7653 28.056 20.902C29.1985 22.0022 30.1074 23.3209 30.7285 24.7795C31.3496 26.2382 31.6701 27.8068 31.671 29.3919C31.6136 32.6555 30.2629 35.7632 27.915 38.0336C25.5671 40.304 22.4136 41.5518 19.146 41.5034Z" fill="#071C1F"/>
<path d="M25.711 22.5381C24.7662 22.5077 23.8513 22.2 23.0804 21.6536C22.3095 21.1071 21.7168 20.346 21.3762 19.4653C21.0357 18.5845 20.9623 17.623 21.1653 16.7009C21.3683 15.7788 21.8387 14.9367 22.5178 14.2799C23.1969 13.6231 24.0545 13.1805 24.9838 13.0075C25.9131 12.8344 26.8728 12.9385 27.7433 13.3068C28.6137 13.675 29.3563 14.2912 29.8784 15.0783C30.4004 15.8654 30.6789 16.7886 30.679 17.7328C30.6577 19.0279 30.1224 20.2615 29.1909 21.1626C28.2593 22.0636 27.0076 22.5584 25.711 22.5381ZM25.711 14.3758C25.0506 14.397 24.4111 14.612 23.8722 14.9939C23.3333 15.3758 22.919 15.9078 22.681 16.5234C22.4429 17.1391 22.3916 17.8111 22.5335 18.4557C22.6754 19.1002 23.0042 19.6888 23.4789 20.1479C23.9536 20.607 24.5531 20.9163 25.2027 21.0372C25.8522 21.1581 26.5231 21.0853 27.1314 20.8278C27.7398 20.5703 28.2588 20.1396 28.6237 19.5894C28.9885 19.0391 29.1831 18.3938 29.183 17.7338C29.1683 16.8286 28.7943 15.9663 28.1432 15.3364C27.4921 14.7065 26.6173 14.3616 25.711 14.3758Z" fill="#071C1F"/>
<path d="M25.711 20.0621C25.2529 20.0472 24.8093 19.8979 24.4356 19.6328C24.0618 19.3677 23.7745 18.9985 23.6095 18.5714C23.4445 18.1443 23.409 17.6781 23.5076 17.2309C23.6061 16.7838 23.8343 16.3756 24.1636 16.0571C24.493 15.7387 24.9089 15.5242 25.3595 15.4403C25.8101 15.3565 26.2755 15.407 26.6975 15.5856C27.1196 15.7642 27.4797 16.063 27.7328 16.4447C27.9859 16.8264 28.121 17.274 28.121 17.7319C28.1107 18.3601 27.8511 18.9585 27.3991 19.3955C26.9472 19.8324 26.34 20.0722 25.711 20.0621ZM25.711 16.8489C25.5372 16.8544 25.3689 16.9109 25.2271 17.0114C25.0853 17.1118 24.9762 17.2518 24.9135 17.4138C24.8508 17.5757 24.8373 17.7526 24.8746 17.9222C24.912 18.0918 24.9985 18.2467 25.1234 18.3675C25.2483 18.4883 25.4061 18.5696 25.577 18.6014C25.7479 18.6332 25.9245 18.614 26.0845 18.5462C26.2446 18.4784 26.3811 18.365 26.4771 18.2202C26.573 18.0754 26.6241 17.9055 26.624 17.7319C26.6198 17.494 26.5213 17.2674 26.3502 17.1019C26.179 16.9364 25.9492 16.8454 25.711 16.8489Z" fill="#071C1F"/>
<path d="M17.583 26.1986H17.559C17.3613 26.1938 17.1733 26.1121 17.035 25.9709L9.857 18.5597C9.79015 18.4914 9.73786 18.4102 9.70328 18.3211C9.66871 18.232 9.65257 18.1369 9.65584 18.0414C9.65911 17.9459 9.68172 17.852 9.72231 17.7655C9.7629 17.679 9.82063 17.6016 9.892 17.538L28.165 0.980701C28.3115 0.849604 28.5028 0.779802 28.6994 0.785752C28.896 0.791702 29.0828 0.872948 29.221 1.01266L36.399 8.42382C36.466 8.49219 36.5184 8.57342 36.5531 8.66261C36.5878 8.75179 36.604 8.84708 36.6007 8.9427C36.5974 9.03831 36.5748 9.13227 36.5341 9.21889C36.4934 9.3055 36.4355 9.38297 36.364 9.4466L29.481 15.6852C29.3343 15.8167 29.1424 15.8867 28.9454 15.8806C28.7483 15.8744 28.5612 15.7926 28.423 15.6522C28.3559 15.5839 28.3034 15.5027 28.2687 15.4136C28.2339 15.3244 28.2177 15.2292 28.2208 15.1335C28.224 15.0379 28.2466 14.9439 28.2872 14.8573C28.3278 14.7706 28.3855 14.6931 28.457 14.6294L34.795 8.88927L28.643 2.52985L11.46 18.0993L17.614 24.4547L22.327 20.1868C22.4737 20.0555 22.6653 19.9857 22.8621 19.9919C23.0589 19.998 23.2458 20.0796 23.384 20.2198C23.4511 20.2881 23.5036 20.3692 23.5383 20.4584C23.5731 20.5475 23.5894 20.6428 23.5862 20.7384C23.583 20.834 23.5604 20.928 23.5198 21.0147C23.4792 21.1013 23.4215 21.1788 23.35 21.2425L18.091 26.0088C17.9504 26.1324 17.7703 26.2 17.583 26.1986Z" fill="#071C1F"/>
<path d="M34.28 8.01345C34.1782 8.01363 34.0774 7.99338 33.9837 7.95392C33.8899 7.91446 33.805 7.85658 33.734 7.78373L29.708 3.62968C29.6408 3.5613 29.5883 3.48001 29.5535 3.39073C29.5187 3.30144 29.5025 3.20604 29.5058 3.1103C29.5091 3.01456 29.5318 2.92049 29.5725 2.83378C29.6133 2.74707 29.6713 2.66955 29.743 2.6059L32.205 0.374566C32.4862 0.122718 32.8538 -0.0111745 33.2313 0.000731042C33.6088 0.0126366 33.9672 0.169424 34.232 0.43849L37.32 3.62569C37.4481 3.75684 37.5482 3.91253 37.6145 4.08338C37.6807 4.25423 37.7116 4.4367 37.7054 4.61981C37.6991 4.80291 37.6558 4.98285 37.578 5.14879C37.5003 5.31473 37.3897 5.46323 37.253 5.58535L34.789 7.81869C34.6499 7.94589 34.4686 8.01706 34.28 8.01845V8.01345ZM31.312 3.16624L34.312 6.26254L36.182 4.56457L33.182 1.46826L31.312 3.16624Z" fill="#071C1F"/>
<path d="M12.031 27.9277H11.982C11.6046 27.9191 11.2456 27.7631 10.982 27.4932L7.895 24.306C7.76673 24.175 7.66637 24.0194 7.59998 23.8486C7.53358 23.6777 7.50253 23.4952 7.5087 23.3121C7.51487 23.129 7.55813 22.949 7.63587 22.783C7.7136 22.617 7.82421 22.4685 7.961 22.3464L11.467 19.1701C11.6137 19.0386 11.8056 18.9686 12.0026 18.9747C12.1997 18.9809 12.3868 19.0627 12.525 19.2031L16.551 23.3582C16.618 23.4265 16.6704 23.5078 16.7051 23.5969C16.7398 23.6861 16.756 23.7814 16.7527 23.877C16.7494 23.9726 16.7268 24.0666 16.6861 24.1532C16.6454 24.2398 16.5875 24.3173 16.516 24.3809L13.01 27.5581C12.7411 27.7987 12.392 27.9304 12.031 27.9277ZM9.031 23.3572L12.031 26.4535L14.949 23.8126L11.949 20.7163L9.031 23.3572Z" fill="#071C1F"/>
</svg>
