<svg width="30" height="27" viewBox="0 0 30 27" fill="none" xmlns="http://www.w3.org/2000/svg">
<g opacity="0.28">
<path d="M26.681 8.06207C25.8263 8.06302 25.0051 8.39495 24.3899 8.98821C23.7746 9.58148 23.413 10.39 23.381 11.2441L22.02 11.4541C21.7959 10.5537 21.3918 9.70801 20.832 8.96807L22.275 7.65707C22.4236 7.71357 22.581 7.74303 22.74 7.74407C23.0291 7.74825 23.3123 7.66145 23.5494 7.49592C23.7865 7.33039 23.9655 7.09452 24.0612 6.82166C24.1569 6.5488 24.1644 6.25276 24.0827 5.9754C24.0009 5.69803 23.8341 5.45338 23.6057 5.27603C23.3773 5.09869 23.0989 4.99762 22.81 4.98713C22.521 4.97664 22.2361 5.05724 21.9954 5.21755C21.7548 5.37786 21.5706 5.60977 21.4689 5.88048C21.3673 6.15118 21.3533 6.44699 21.429 6.72607L19.986 8.03707C18.8735 7.01088 17.4533 6.38061 15.946 6.24407V5.01807C16.4799 4.86641 16.941 4.52678 17.2441 4.06185C17.5473 3.59692 17.6721 3.03805 17.5955 2.48833C17.5189 1.9386 17.2462 1.4351 16.8275 1.07071C16.4088 0.706316 15.8725 0.505615 15.3175 0.505615C14.7625 0.505615 14.2261 0.706316 13.8075 1.07071C13.3888 1.4351 13.116 1.9386 13.0395 2.48833C12.9629 3.03805 13.0877 3.59692 13.3909 4.06185C13.694 4.52678 14.1551 4.86641 14.689 5.01807V6.24407C13.6081 6.34175 12.5658 6.69477 11.648 7.27407L10.489 5.75307C10.4997 5.69872 10.5054 5.64348 10.506 5.58807C10.5071 5.40676 10.4555 5.22903 10.3574 5.07656C10.2593 4.92409 10.1189 4.80348 9.95335 4.72945C9.78784 4.65541 9.60434 4.63116 9.42527 4.65964C9.24621 4.68812 9.07931 4.7681 8.94493 4.88983C8.81055 5.01156 8.71454 5.16978 8.66856 5.34517C8.62258 5.52056 8.62865 5.70554 8.68602 5.87755C8.74338 6.04955 8.84956 6.20114 8.99162 6.31381C9.13368 6.42649 9.30546 6.49538 9.486 6.51208L10.648 8.03707C9.91206 8.70927 9.32979 9.53233 8.94096 10.4501L7.45799 9.98007C7.43116 9.57903 7.26513 9.19995 6.98857 8.90829C6.71201 8.61662 6.34227 8.43069 5.94322 8.3826C5.54417 8.33451 5.1409 8.42727 4.80296 8.64487C4.46502 8.86248 4.21367 9.19127 4.09233 9.57445C3.97099 9.95763 3.98726 10.3712 4.13835 10.7436C4.28943 11.1161 4.56585 11.4241 4.91984 11.6145C5.27384 11.8048 5.68316 11.8656 6.07719 11.7863C6.47122 11.707 6.8252 11.4926 7.07798 11.1801L8.56498 11.6501C8.28736 12.9 8.36776 14.2028 8.79698 15.4091L7.29698 16.0951C6.78813 15.3548 6.02045 14.832 5.14524 14.6297C4.27004 14.4274 3.35081 14.5602 2.56871 15.0021C1.7866 15.4439 1.19837 16.1627 0.919964 17.0168C0.641554 17.8708 0.693172 18.7982 1.06462 19.6161C1.43606 20.434 2.10038 21.0831 2.92668 21.4354C3.75297 21.7878 4.68131 21.8178 5.52867 21.5197C6.37603 21.2215 7.08092 20.6167 7.5045 19.8246C7.92807 19.0324 8.03958 18.1103 7.817 17.2401L9.317 16.5541C9.8796 17.5356 10.6736 18.3647 11.63 18.9691L10.65 20.8891C10.3586 20.8978 10.0784 21.0033 9.85368 21.189C9.62893 21.3746 9.47244 21.6298 9.40886 21.9143C9.34527 22.1988 9.37822 22.4964 9.50254 22.76C9.62687 23.0237 9.8355 23.2385 10.0954 23.3704C10.3554 23.5023 10.6518 23.544 10.938 23.4887C11.2242 23.4334 11.484 23.2844 11.6761 23.0651C11.8682 22.8459 11.9818 22.5689 11.9989 22.2779C12.0161 21.9869 11.9359 21.6984 11.771 21.4581L12.749 19.5431C13.5654 19.8726 14.4375 20.0424 15.318 20.0431C15.518 20.0431 15.709 20.0291 15.903 20.0131L16.156 21.4391C15.5699 21.6982 15.099 22.1629 14.8321 22.7455C14.5652 23.3281 14.5208 23.9882 14.7073 24.6012C14.8937 25.2143 15.2982 25.7379 15.8442 26.0732C16.3903 26.4085 17.0402 26.5324 17.6713 26.4213C18.3024 26.3103 18.871 25.9721 19.2698 25.4705C19.6686 24.9689 19.87 24.3387 19.836 23.6988C19.802 23.059 19.535 22.4536 19.0853 21.9972C18.6356 21.5407 18.0343 21.2646 17.395 21.2211L17.141 19.7911C18.5348 19.4117 19.7744 18.6044 20.685 17.4831L21.871 18.2831C21.6839 18.8357 21.7038 19.4375 21.9272 19.9765C22.1506 20.5156 22.5622 20.9551 23.0854 21.2134C23.6086 21.4716 24.2077 21.5311 24.7715 21.3806C25.3352 21.2302 25.8251 20.8801 26.1501 20.3955C26.475 19.9109 26.6128 19.3247 26.5379 18.7461C26.4631 18.1675 26.1805 17.6357 25.7429 17.2498C25.3053 16.8639 24.7424 16.65 24.159 16.648C23.5755 16.6461 23.0112 16.8561 22.571 17.2391L21.387 16.4451C21.9424 15.4296 22.2327 14.2905 22.231 13.1331C22.231 12.9881 22.218 12.8461 22.209 12.7031L23.571 12.4931C23.7757 13.063 24.133 13.5658 24.604 13.9466C25.0749 14.3274 25.6414 14.5716 26.2416 14.6525C26.8418 14.7333 27.4527 14.6478 28.0077 14.4053C28.5626 14.1628 29.0403 13.7725 29.3886 13.277C29.7369 12.7816 29.9425 12.2 29.9829 11.5958C30.0233 10.9915 29.897 10.3877 29.6178 9.8503C29.3385 9.31289 28.9171 8.86247 28.3994 8.54819C27.8817 8.23392 27.2876 8.06784 26.682 8.06808L26.681 8.06207Z" fill="#0A9A73"/>
</g>
</svg>
