<svg width="48" height="36" viewBox="0 0 48 36" fill="none" xmlns="http://www.w3.org/2000/svg">
<path d="M1.66701 12.1896C1.85 12.1889 2.02868 12.1341 2.18049 12.032C2.33231 11.93 2.45045 11.7853 2.52001 11.6163C2.58846 11.4422 2.60137 11.2513 2.55697 11.0696C2.51258 10.888 2.41305 10.7245 2.27201 10.6015C2.12606 10.4784 1.94588 10.4028 1.75569 10.385C1.56549 10.3671 1.37437 10.4078 1.20801 10.5016C1.0433 10.596 0.912248 10.7395 0.833178 10.9119C0.754108 11.0844 0.730974 11.2772 0.767011 11.4634C0.811632 11.669 0.925148 11.8532 1.08879 11.9856C1.25244 12.118 1.45642 12.1907 1.66701 12.1916V12.1896Z" fill="#071C1F"/>
<path d="M38.457 12.1518C38.646 9.74225 38.0396 7.33722 36.7305 5.30455C35.4214 3.27188 33.4816 1.72348 31.208 0.896196C26.928 -0.458189 23.268 1.58537 20.887 3.2404C20.5148 3.49744 20.073 3.63513 19.6205 3.63513C19.168 3.63513 18.7262 3.49744 18.354 3.2404C15.973 1.58537 12.312 -0.455192 8.03302 0.896196C6.60917 1.37381 5.30529 2.15272 4.21043 3.17974C3.11558 4.20676 2.25552 5.45768 1.68902 6.84709C1.64065 6.95645 1.61461 7.07435 1.61241 7.19389C1.61022 7.31342 1.63192 7.43219 1.67625 7.54324C1.72057 7.65429 1.78663 7.7554 1.87056 7.84065C1.95448 7.92589 2.05459 7.99355 2.16502 8.03967C2.38783 8.13587 2.63963 8.14043 2.86579 8.05236C3.09195 7.96429 3.27421 7.79069 3.37302 7.56923C3.83601 6.41836 4.54196 5.38072 5.44277 4.527C6.34358 3.67329 7.41807 3.02357 8.59302 2.62214C12.023 1.53643 15.111 3.22142 17.173 4.63673C17.8838 5.90264 19.0477 6.85317 20.431 7.29756C21.8948 7.77873 23.4897 7.66241 24.868 6.97395C24.9755 6.92159 25.0714 6.84837 25.1502 6.75857C25.229 6.66877 25.2891 6.56419 25.327 6.45094C25.3649 6.33768 25.3798 6.21802 25.3709 6.09894C25.362 5.97986 25.3294 5.86376 25.275 5.7574C25.1633 5.54233 24.9713 5.37983 24.7406 5.30506C24.5098 5.2303 24.2589 5.24927 24.042 5.35787C23.0989 5.82886 22.0075 5.90821 21.006 5.57861C20.8224 5.51884 20.6433 5.44608 20.47 5.36087C20.999 5.24938 21.5002 5.03303 21.944 4.72463C24.004 3.29233 27.144 1.51645 30.644 2.62713C32.5074 3.3258 34.0959 4.60534 35.1742 6.27624C36.2525 7.94714 36.7634 9.92052 36.631 11.9041C36.3903 11.8894 36.148 11.8821 35.904 11.8821C33.5784 11.8687 31.3009 12.5435 29.3588 13.8214C27.4167 15.0994 25.897 16.9231 24.9914 19.0627C24.0858 21.2023 23.8349 23.5618 24.2703 25.8436C24.7058 28.1254 25.808 30.2274 27.438 31.8842L26.923 32.9639C26.7655 33.291 26.51 33.561 26.1918 33.7363C25.8737 33.9117 25.5088 33.9837 25.1478 33.9424C24.7868 33.9011 24.4476 33.7486 24.1774 33.5059C23.9072 33.2633 23.7194 32.9426 23.64 32.5884L21.48 22.5344C21.48 22.5184 21.473 22.5024 21.469 22.4874C21.3548 22.0853 21.1124 21.7314 20.7785 21.4793C20.4446 21.2273 20.0375 21.0909 19.619 21.0909C19.2005 21.0909 18.7934 21.2273 18.4596 21.4793C18.1257 21.7314 17.8832 22.0853 17.769 22.4874C17.769 22.5034 17.761 22.5184 17.758 22.5344L15.598 32.5894C15.5187 32.9436 15.3308 33.2643 15.0606 33.5069C14.7904 33.7496 14.4513 33.9021 14.0902 33.9434C13.7292 33.9847 13.3643 33.9127 13.0462 33.7374C12.728 33.562 12.4725 33.292 12.315 32.9649C8.89202 25.7735 6.73302 21.5166 5.89902 20.307C4.77547 18.7134 3.88517 16.9679 3.25502 15.1232C3.18024 14.8923 3.01702 14.7003 2.801 14.5891C2.58497 14.478 2.33369 14.4567 2.10202 14.5299C1.98788 14.5657 1.88198 14.6237 1.79042 14.7006C1.69886 14.7774 1.62347 14.8717 1.56861 14.9778C1.51374 15.084 1.48049 15.2 1.47078 15.319C1.46106 15.4381 1.47508 15.5579 1.51202 15.6716C2.19604 17.6799 3.16346 19.5805 4.38502 21.3158C5.14202 22.4145 7.37002 26.8213 10.657 33.725C10.9425 34.3357 11.3975 34.8518 11.9679 35.2119C12.5383 35.572 13.2002 35.761 13.875 35.7566C14.0194 35.7565 14.1636 35.7482 14.307 35.7316C15.0506 35.6568 15.751 35.3473 16.3066 34.848C16.8622 34.3487 17.2442 33.6857 17.397 32.955L19.551 22.9309C19.559 22.9059 19.573 22.889 19.624 22.889C19.675 22.889 19.689 22.9069 19.698 22.9309L21.852 32.955C22.0157 33.6815 22.4018 34.3391 22.9565 34.8367C23.5113 35.3342 24.2073 35.647 24.9481 35.7316C25.6889 35.8162 26.4376 35.6685 27.0906 35.309C27.7435 34.9494 28.2683 34.3959 28.592 33.725L28.881 33.1188C30.2937 34.1708 31.9242 34.8936 33.653 35.2343C35.3817 35.575 37.1649 35.5249 38.8718 35.0876C40.5786 34.6504 42.1658 33.8371 43.517 32.7074C44.8682 31.5777 45.9491 30.1602 46.6805 28.559C47.4118 26.9577 47.7751 25.2133 47.7436 23.4536C47.7121 21.6939 47.2866 19.9635 46.4984 18.3894C45.7102 16.8153 44.5793 15.4373 43.1885 14.3566C41.7977 13.2759 40.1824 12.5198 38.461 12.1438L38.457 12.1518ZM35.907 33.6162C33.9354 33.6102 32.0098 33.0209 30.3733 31.9226C28.7368 30.8244 27.4628 29.2663 26.7122 27.4454C25.9616 25.6244 25.7681 23.6221 26.1561 21.6913C26.5441 19.7606 27.4961 17.9879 28.8921 16.5972C30.2881 15.2066 32.0653 14.2602 33.9994 13.8777C35.9334 13.4953 37.9376 13.6937 39.7588 14.4482C41.58 15.2026 43.1365 16.4791 44.2319 18.1165C45.3272 19.7539 45.9122 21.6788 45.913 23.6481C45.9067 26.294 44.8495 28.8292 42.9735 30.6973C41.0975 32.5654 38.5561 33.6138 35.907 33.6122V33.6162Z" fill="#071C1F"/>
<path d="M40.295 20.5407H39.038V19.2812C39.0354 18.7454 38.82 18.2325 38.4393 17.855C38.0586 17.4775 37.5435 17.2663 37.007 17.2676H34.807C34.2705 17.2663 33.7554 17.4775 33.3747 17.855C32.994 18.2325 32.7786 18.7454 32.776 19.2812V20.5407H31.521C30.9844 20.5391 30.4692 20.7502 30.0884 21.1278C29.7076 21.5053 29.4924 22.0184 29.49 22.5543V24.7447C29.4927 25.2805 29.708 25.7934 30.0887 26.1709C30.4695 26.5484 30.9845 26.7596 31.521 26.7583H32.778V28.0178C32.7807 28.5536 32.996 29.0665 33.3767 29.444C33.7575 29.8215 34.2726 30.0327 34.809 30.0314H37.009C37.5455 30.0327 38.0606 29.8215 38.4413 29.444C38.8221 29.0665 39.0374 28.5536 39.04 28.0178V26.7583H40.297C40.8335 26.7596 41.3486 26.5484 41.7293 26.1709C42.1101 25.7934 42.3254 25.2805 42.328 24.7447V22.5543C42.3254 22.0181 42.1098 21.5049 41.7286 21.1274C41.3474 20.7498 40.8318 20.5388 40.295 20.5407ZM40.49 24.7437C40.49 24.7958 40.4696 24.8459 40.4332 24.8832C40.3968 24.9205 40.3472 24.9421 40.295 24.9434H38.12C37.8781 24.9421 37.6454 25.0368 37.4733 25.2066C37.3012 25.3765 37.2036 25.6077 37.202 25.8494V28.0148C37.202 28.0669 37.1816 28.117 37.1452 28.1543C37.1088 28.1916 37.0592 28.2132 37.007 28.2145H34.807C34.7548 28.2132 34.7053 28.1916 34.6688 28.1543C34.6324 28.117 34.612 28.0669 34.612 28.0148V25.8494C34.6104 25.6077 34.5129 25.3765 34.3407 25.2066C34.1686 25.0368 33.936 24.9421 33.694 24.9434H31.521C31.4688 24.9421 31.4192 24.9205 31.3828 24.8832C31.3464 24.8459 31.326 24.7958 31.326 24.7437V22.5533C31.326 22.5012 31.3464 22.4511 31.3828 22.4138C31.4192 22.3765 31.4688 22.3548 31.521 22.3535H33.696C33.938 22.3549 34.1706 22.2602 34.3427 22.0903C34.5148 21.9205 34.6124 21.6893 34.614 21.4476V19.2822C34.614 19.2301 34.6344 19.18 34.6708 19.1427C34.7072 19.1053 34.7568 19.0837 34.809 19.0824H37.009C37.0612 19.0837 37.1108 19.1053 37.1472 19.1427C37.1836 19.18 37.204 19.2301 37.204 19.2822V21.4476C37.2056 21.6893 37.3032 21.9205 37.4753 22.0903C37.6474 22.2602 37.88 22.3549 38.122 22.3535H40.297C40.3492 22.3548 40.3988 22.3765 40.4352 22.4138C40.4716 22.4511 40.492 22.5012 40.492 22.5533L40.49 24.7437Z" fill="#071C1F"/>
</svg>
