<svg width="41" height="41" viewBox="0 0 41 41" fill="none" xmlns="http://www.w3.org/2000/svg">
<path d="M37.981 3.04221C37.2463 2.29437 36.3696 1.70033 35.4023 1.29481C34.4351 0.889286 33.3965 0.68042 32.3475 0.68042C31.2985 0.68042 30.26 0.889286 29.2927 1.29481C28.3254 1.70033 27.4488 2.29437 26.714 3.04221L20.533 9.29275L14.35 3.04221C13.6143 2.29608 12.7373 1.70355 11.7702 1.29911C10.803 0.894665 9.765 0.686383 8.71651 0.686383C7.66802 0.686383 6.62999 0.894665 5.66285 1.29911C4.6957 1.70355 3.81874 2.29608 3.08301 3.04221C1.5865 4.56178 0.747833 6.60791 0.747833 8.73941C0.747833 10.8709 1.5865 12.917 3.08301 14.4366L10.083 21.5162C10.1901 21.625 10.3177 21.7115 10.4586 21.7706C10.5995 21.8296 10.7507 21.86 10.9035 21.86C11.0563 21.86 11.2075 21.8296 11.3484 21.7706C11.4893 21.7115 11.617 21.625 11.724 21.5162L20.53 12.6108L29.336 21.5162C29.4431 21.625 29.5707 21.7115 29.7116 21.7706C29.8525 21.8296 30.0037 21.86 30.1565 21.86C30.3093 21.86 30.4605 21.8296 30.6014 21.7706C30.7423 21.7115 30.87 21.625 30.977 21.5162L37.977 14.4366C39.4704 12.9154 40.307 10.8699 40.307 8.73941C40.307 6.60892 39.4704 4.5634 37.977 3.04221H37.981ZM10.907 19.0231L4.72601 12.7776C3.66764 11.6995 3.07479 10.2498 3.07479 8.73991C3.07479 7.23001 3.66764 5.78033 4.72601 4.70223C5.24717 4.17299 5.86859 3.75265 6.55405 3.46573C7.23951 3.17881 7.97529 3.03105 8.71851 3.03105C9.46173 3.03105 10.1975 3.17881 10.883 3.46573C11.5684 3.75265 12.1899 4.17299 12.711 4.70223L18.892 10.9528L10.907 19.0231ZM36.34 12.7776L30.159 19.0281L22.173 10.9528L28.35 4.70223C28.8712 4.17283 29.4927 3.75237 30.1782 3.46536C30.8638 3.17835 31.5997 3.03054 32.343 3.03054C33.0864 3.03054 33.8222 3.17835 34.5078 3.46536C35.1934 3.75237 35.8148 4.17283 36.336 4.70223C37.3944 5.78033 37.9872 7.23001 37.9872 8.73991C37.9872 10.2498 37.3944 11.6995 36.336 12.7776H36.34Z" fill="#071C1F"/>
<path d="M18.057 23.2112C17.3271 23.2021 16.6109 23.41 15.9996 23.8084C15.3882 24.2068 14.9093 24.7778 14.6236 25.4487C14.3379 26.1197 14.2584 26.8603 14.3952 27.5765C14.532 28.2927 14.8789 28.9521 15.3918 29.4709C15.9048 29.9897 16.5605 30.3445 17.2758 30.4901C17.9911 30.6357 18.7335 30.5656 19.4088 30.2888C20.0841 30.0119 20.6618 29.5407 21.0683 28.9351C21.4748 28.3296 21.6919 27.6169 21.692 26.8878C21.6968 25.9192 21.3168 24.9882 20.6354 24.299C19.954 23.6098 19.0268 23.2186 18.057 23.2112ZM18.057 28.2172C17.7931 28.2204 17.5342 28.1452 17.3132 28.001C17.0923 27.8569 16.9192 27.6504 16.816 27.4078C16.7128 27.1651 16.6841 26.8973 16.7337 26.6384C16.7832 26.3795 16.9087 26.1411 17.0942 25.9536C17.2797 25.7661 17.5168 25.6379 17.7754 25.5853C18.034 25.5327 18.3024 25.558 18.5466 25.6582C18.7907 25.7583 18.9996 25.9287 19.1465 26.1476C19.2935 26.3666 19.372 26.6242 19.372 26.8878C19.3736 27.2381 19.2361 27.5748 18.9896 27.824C18.7431 28.0732 18.4077 28.2146 18.057 28.2172Z" fill="#071C1F"/>
<path d="M26.722 29.4688C25.9921 29.4597 25.2759 29.6675 24.6646 30.066C24.0532 30.4644 23.5743 31.0353 23.2886 31.7063C23.0029 32.3773 22.9234 33.1179 23.0602 33.8341C23.197 34.5503 23.5439 35.2097 24.0568 35.7285C24.5697 36.2473 25.2255 36.602 25.9408 36.7476C26.6561 36.8933 27.3985 36.8232 28.0738 36.5463C28.7491 36.2694 29.3268 35.7983 29.7333 35.1927C30.1399 34.5871 30.3569 33.8745 30.357 33.1454C30.3621 32.1767 29.9822 31.2456 29.3007 30.5563C28.6193 29.867 27.6919 29.4759 26.722 29.4688ZM26.722 34.4748C26.4581 34.478 26.1992 34.4027 25.9782 34.2586C25.7573 34.1144 25.5842 33.9079 25.481 33.6653C25.3778 33.4227 25.3491 33.1549 25.3987 32.896C25.4482 32.6371 25.5737 32.3987 25.7592 32.2112C25.9447 32.0236 26.1818 31.8954 26.4404 31.8428C26.699 31.7902 26.9674 31.8156 27.2116 31.9157C27.4557 32.0159 27.6646 32.1862 27.8115 32.4052C27.9585 32.6242 28.037 32.8818 28.037 33.1454C28.0386 33.4957 27.9011 33.8323 27.6546 34.0815C27.4081 34.3307 27.0727 34.4722 26.722 34.4748Z" fill="#071C1F"/>
<path d="M17.567 19.7195C17.6099 19.8662 17.6814 20.0029 17.7776 20.1218C17.8737 20.2406 17.9925 20.3393 18.1271 20.4119C18.2617 20.4846 18.4094 20.5298 18.5617 20.545C18.7139 20.5602 18.8677 20.5451 19.014 20.5005C19.31 20.4078 19.5574 20.202 19.7022 19.9279C19.847 19.6538 19.8775 19.3337 19.787 19.0373C19.7413 18.8815 19.6632 18.7371 19.5579 18.6135C19.4526 18.4899 19.3224 18.3898 19.1758 18.3198C19.0292 18.2498 18.8695 18.2114 18.707 18.2072C18.5446 18.2029 18.3831 18.2329 18.233 18.2952C17.9657 18.4088 17.7498 18.617 17.6269 18.8799C17.504 19.1428 17.4827 19.4418 17.567 19.7195Z" fill="#071C1F"/>
<path d="M23.755 22.8475C23.7979 22.9941 23.8694 23.1308 23.9655 23.2496C24.0616 23.3684 24.1802 23.467 24.3147 23.5397C24.4492 23.6125 24.5967 23.6579 24.7489 23.6733C24.901 23.6887 25.0547 23.6738 25.201 23.6295C25.4973 23.537 25.7448 23.3313 25.8898 23.0572C26.0348 22.7831 26.0654 22.4628 25.975 22.1663C25.9294 22.0105 25.8515 21.866 25.7462 21.7423C25.6409 21.6186 25.5107 21.5184 25.364 21.4484C25.2174 21.3784 25.0576 21.34 24.8951 21.3358C24.7326 21.3317 24.5711 21.3618 24.421 21.4242C24.1539 21.5378 23.9383 21.7459 23.8153 22.0086C23.6924 22.2712 23.6709 22.57 23.755 22.8475Z" fill="#071C1F"/>
<path d="M32.19 39.1731C32.1597 39.0135 32.0961 38.8621 32.0033 38.7286C31.9106 38.5952 31.7907 38.4827 31.6516 38.3985C31.5126 38.3143 31.3573 38.2602 31.1959 38.2399C31.0346 38.2195 30.8707 38.2332 30.715 38.2802C30.419 38.3729 30.1716 38.5787 30.0268 38.8528C29.882 39.1269 29.8516 39.447 29.942 39.7434C29.9849 39.89 30.0564 40.0267 30.1525 40.1455C30.2486 40.2642 30.3673 40.3628 30.5018 40.4355C30.6363 40.5081 30.7839 40.5534 30.936 40.5687C31.0881 40.584 31.2418 40.5689 31.388 40.5245C31.6654 40.4383 31.9009 40.2524 32.0491 40.0028C32.1972 39.7532 32.2474 39.4576 32.19 39.1731Z" fill="#071C1F"/>
<path d="M23.527 39.1732C23.4968 39.0135 23.4333 38.862 23.3406 38.7284C23.2479 38.5949 23.1281 38.4823 22.9889 38.3981C22.8498 38.3139 22.6945 38.2599 22.533 38.2395C22.3716 38.2192 22.2077 38.2331 22.052 38.2802C21.7561 38.3732 21.5089 38.579 21.3642 38.853C21.2194 39.127 21.1888 39.4471 21.279 39.7435C21.3221 39.89 21.3938 40.0266 21.49 40.1454C21.5862 40.2641 21.705 40.3626 21.8396 40.4352C21.9741 40.5078 22.1217 40.5531 22.2738 40.5684C22.426 40.5838 22.5797 40.5688 22.726 40.5245C23.0032 40.4381 23.2385 40.2522 23.3865 40.0026C23.5344 39.753 23.5845 39.4575 23.527 39.1732Z" fill="#071C1F"/>
<path d="M19.815 34.167C19.7847 34.0074 19.721 33.856 19.6283 33.7225C19.5355 33.5891 19.4157 33.4766 19.2766 33.3924C19.1376 33.3082 18.9823 33.2542 18.8209 33.2338C18.6596 33.2134 18.4957 33.2271 18.34 33.2741C18.0441 33.367 17.7969 33.5729 17.6522 33.8469C17.5074 34.1209 17.4768 34.4409 17.567 34.7373C17.6097 34.8841 17.6812 35.021 17.7773 35.1399C17.8735 35.2589 17.9923 35.3576 18.1269 35.4304C18.2615 35.5032 18.4092 35.5485 18.5615 35.5638C18.7138 35.5791 18.8676 35.564 19.014 35.5194C19.2913 35.4328 19.5266 35.2466 19.6745 34.9969C19.8225 34.7471 19.8725 34.4515 19.815 34.167Z" fill="#071C1F"/>
<path d="M13.309 33.3494C13.5268 33.1279 13.6488 32.8298 13.6488 32.5194C13.6488 32.2089 13.5268 31.9109 13.309 31.6894C13.1951 31.5736 13.0579 31.4833 12.9065 31.4243C12.7552 31.3653 12.593 31.339 12.4307 31.3471C12.2684 31.3553 12.1097 31.3976 11.965 31.4714C11.8202 31.5452 11.6928 31.6487 11.591 31.7752C11.3965 32.0169 11.3045 32.3251 11.3347 32.6338C11.365 32.9424 11.5152 33.2269 11.753 33.4263C11.9747 33.6108 12.2578 33.7053 12.546 33.6911C12.8343 33.6768 13.1066 33.5549 13.309 33.3494Z" fill="#071C1F"/>
<path d="M15.483 39.1743C15.4526 39.0148 15.389 38.8635 15.2964 38.7301C15.2037 38.5968 15.084 38.4843 14.945 38.4001C14.806 38.3159 14.6509 38.2619 14.4896 38.2414C14.3284 38.221 14.1646 38.2346 14.009 38.2814C13.713 38.3741 13.4656 38.5799 13.3208 38.854C13.176 39.1281 13.1456 39.4482 13.236 39.7446C13.2789 39.8913 13.3504 40.0281 13.4466 40.1469C13.5427 40.2658 13.6616 40.3644 13.7962 40.4371C13.9308 40.5097 14.0785 40.555 14.2307 40.5702C14.3829 40.5854 14.5367 40.5703 14.683 40.5257C14.9599 40.4389 15.1948 40.2528 15.3426 40.0033C15.4903 39.7537 15.5403 39.4585 15.483 39.1743Z" fill="#071C1F"/>
</svg>
